<svg id="Layer_2" data-name="Layer 2" xmlns="http://www.w3.org/2000/svg" viewBox="0 0 720 196.82828"><title>lumberyard-horizontal-black</title><path d="M268.34187,79.04448c-1.0842.33583-2.143.718-3.18556,1.14674a1.01385,1.01385,0,0,1-1.367-1.14775c.74677-3.85044,1.3153-7.92823,1.79861-12.26833,4.05974-36.45652.15716-46.07466-3.696-50.38075a11.52869,11.52869,0,0,0-9.31619-3.75583,13.21328,13.21328,0,0,0-10.07394,4.68562c-6.93735,7.77555-8.80471,24.72479-5.70928,51.81565,1.43418,12.54725,4.38617,23.08637,8.74953,31.44389a2.56959,2.56959,0,0,1,.22866,1.857,13.22881,13.22881,0,0,1-3.42549,6.28922,9.47228,9.47228,0,0,1-6.567,2.53542c-8.29771-.58413-10.79572-11.3254-10.898-11.78249-3.02927-13.52362-10.473-21.59824-19.91359-21.59824-6.49939,0-12.15206,4.86971-16.0308,12.86958a.79588.79588,0,0,1-1.42667,0c-3.8789-7.99987-9.53156-12.86958-16.03124-12.86958-4.25127,0-8.13911,2.08642-11.40643,5.76641v-.1383A2.50152,2.50152,0,0,0,157.57,81.0113l-5.462.00015a2.166,2.166,0,0,0-2.17157,2.1096c-.36747,18.13874-5.43975,28.13164-8.98556,28.13164-4.26455,0-10.64752-11.35718-11.02192-28.6411a1.62271,1.62271,0,0,0-1.61416-1.60022l-6.95468-.00007a1.593,1.593,0,0,0-1.58325,1.56512c-.45846,16.97879-8.31938,28.67627-15.39611,28.67627-7.08222,0-14.94978-11.71532-15.39713-28.71512a1.55263,1.55263,0,0,0-1.54367-1.52641l-7.30567.00115a1.32628,1.32628,0,0,0-1.28093,1.3039l-.00433.619c-.06457,12.438-2.73086,21.33759-7.72067,25.75526a11.787,11.787,0,0,1-8.55641,3.08568l-.23631-.03106c-.45991-.05669-6.98934-1.0028-13.23495-9.21024a1.85486,1.85486,0,0,1-.03827-2.156A67.13451,67.13451,0,0,0,60.30185,70.84846c2.9325-24.68385,1.38753-39.45749-4.86212-46.4937a13.93837,13.93837,0,0,0-11.19338-4.62921,13.56949,13.56949,0,0,0-10.36326,4.814c-6.7032,7.56951-8.47451,23.44366-5.41491,48.52826,1.3715,11.24993,3.989,19.90753,7.17294,26.56964a1.75472,1.75472,0,0,1-.23805,1.89784,96.08134,96.08134,0,0,1-22.16518,18.83417,2.492,2.492,0,0,0-.899,3.297l1.24208,2.35,1.15222,2.18918a2.50093,2.50093,0,0,0,3.49771.98157,104.74043,104.74043,0,0,0,22.21834-17.98859,1.86021,1.86021,0,0,1,2.74934.0078c8.05476,9.01322,16.475,10.40378,17.95956,10.583a21.61538,21.61538,0,0,0,16.40043-5.28816,26.7191,26.7191,0,0,0,6.1455-7.819,1.097,1.097,0,0,1,1.91244-.04182c4.63,7.87132,11.27239,12.72564,18.76425,12.72564,7.519,0,14.17961-4.89441,18.81134-12.81722a1.172,1.172,0,0,1,2.0719.08125c3.81014,7.91776,9.33555,12.736,15.68688,12.736a12.89349,12.89349,0,0,0,9.00723-3.70087,2.50139,2.50139,0,0,0,2.50147,2.50155h5.87106a1.86053,1.86053,0,0,0,1.739-1.85328l.00419-.65961c.14054-18.12429,6.80243-29.65581,11.40412-29.65581,4.54377,0,11.09574,11.242,11.39589,28.97209l.00766.3523a.93793.93793,0,0,0,.89757.91563h8.9428c.79343,0,.84066-.68777.84529-1.02815.24483-17.86849,6.83536-29.21187,11.3995-29.21187,4.23841,0,8.18129,5.37554,10.04433,13.69427,3.06307,13.68583,12.71942,19.14465,19.965,19.654.14531.01271.50093.03813,1.02367.03813a19.58625,19.58625,0,0,0,13.06855-5.09619c.37527-.34334.73349-.7064,1.07481-1.08123a1.34074,1.34074,0,0,1,1.9861-.03344,22.19082,22.19082,0,0,0,8.98974,5.60839,29.834,29.834,0,0,0,9.61389,1.53363,35.62714,35.62714,0,0,0,10.51623-1.62673c15.04107-4.66026,23.98835-17.45862,20.37-29.13531C297.99935,79.87691,283.38438,74.3814,268.34187,79.04448ZM44.44569,88.23139a1.38818,1.38818,0,0,1-2.54857-.21,88.44725,88.44725,0,0,1-3.39038-16.17827c-3.60561-29.56706.86059-38.24271,2.94809-40.6004a3.59634,3.59634,0,0,1,2.79152-1.40384c1.6211,0,2.589.05785,3.63233,1.23174,1.84686,2.0797,5.77631,10.00194,2.38029,38.58417A54.31,54.31,0,0,1,44.44569,88.23139ZM255.5365,65.65491A108.2178,108.2178,0,0,1,252.332,83.569a1.34,1.34,0,0,1-2.585-.01452,103.23869,103.23869,0,0,1-2.90592-15.56309c-3.68881-32.27458,1.0137-41.47515,3.20694-43.93293a3.19172,3.19172,0,0,1,2.52762-1.30649c1.4336,0,1.507.08183,1.78.3866C255.58951,24.51841,259.32193,31.66043,255.5365,65.65491Zm22.71782,45.37491a23.03984,23.03984,0,0,1-13.8757.17918c-2.03723-.6942-5.62319-2.39856-6.7461-6.02323-1.12319-3.62316.8697-7.05731,2.158-8.78146a23.05166,23.05166,0,0,1,11.54539-7.70073,25.54072,25.54072,0,0,1,7.52234-1.16263c6.38846,0,11.73865,2.61443,13.10018,7.00661C293.83359,100.599,287.55852,108.14592,278.25432,111.02982Z"/><path d="M704.55967,101.06616l-5.20344-1.1653a2.41407,2.41407,0,0,0-2.80886,1.53175c-1.15468,3.24941-4.121,9.2873-10.32541,9.76079l-.12278.00534a9.54068,9.54068,0,0,1-6.30468-2.44608c-2.24755-2.05673-3.66541-5.48576-4.20765-10.00692a2.61688,2.61688,0,0,1,.3146-1.55623c5.14682-9.45016,7.22739-20.50589,8.61954-33.87242,4.09209-39.28119.07106-49.36214-3.88987-53.75713a11.32245,11.32245,0,0,0-9.126-3.68107,12.88331,12.88331,0,0,0-9.78173,4.55582c-7.17365,7.98153-9.13867,26.10612-6.00482,55.41072.36747,3.44036.84645,6.72219,1.417,9.86962a1.83125,1.83125,0,0,1-2.16261,2.10679,31.70343,31.70343,0,0,0-6.45866-.47045v-.00564c-.14069,0-.26607.01589-.4056.01726-.4082.01589-.81351.02152-1.226.05258a28.53332,28.53332,0,0,0-12.80754,3.37067,31.56351,31.56351,0,0,0-11.97583,9.49053,22.58448,22.58448,0,0,0-4.029,8.574,17.33334,17.33334,0,0,1-2.17749,5.58145c-2.83543,4.46129-5.63446,6.76272-10.79485,6.76272a5.56918,5.56918,0,0,1-4.51994-1.85957c-3.73185-4.17631-3.62554-14.10912-3.27483-17.58133.97789-4.77878-.65866-7.88281-2.225-9.65773-4.91686-5.57307-14.90053-4.965-23.393-4.16785-.10342-.13116-.212-.26238-.32442-.39079a10.26111,10.26111,0,0,0-8.06545-3.42007,7.534,7.534,0,0,0-5.75522,2.30265,6.89425,6.89425,0,0,0-1.79312,5.27256c.24266,3.23662,2.82965,5.73391,6.65394,6.48877.21609.06818.43853.12617.66921.17471a1.121,1.121,0,0,1,.89786,1.08982c-.039,8.647-1.96775,15.03125-5.62854,18.55452a11.40568,11.40568,0,0,1-8.13651,3.2211l-.18778-.01553c-10.62557-.704-11.16377-10.81038-11.16377-12.82942V80.95027a2.42927,2.42927,0,0,0-2.42925-2.42925h-5.25516a2.429,2.429,0,0,0-2.429,2.429,17.75137,17.75137,0,0,0-3.91038-2.06662A34.61193,34.61193,0,0,0,488.267,90.014c-.43968.52137-.87013,1.03184-1.30981,1.55321-1.95057,2.01354-4.20635,4.30818-6.62535,6.7687q-1.69432,1.72293-3.4639,3.52508a2.317,2.317,0,0,1-3.97091-1.62124v-18.208a1.86139,1.86139,0,0,0-1.8613-1.8613h-7.01549c-1.42811,0-1.31805,1.58809-1.31805,1.58809-.26375,17.34581-8.24022,29.35458-15.41113,29.35458-7.13682,0-15.34036-11.89285-15.40941-29.10758-.00028-.0728-.00592-.06739-.00592-.14033,0-1.77232-1.91431-1.69476-1.91431-1.69476h-6.6473a2.41873,2.41873,0,0,0-2.42463,2.33183c-.47826,16.067-5.88248,27.90819-12.94448,27.90819-9.75082,0-12.35947-15.28576-13.036-22.11036-.08335-5.29091-2.6335-8.19177-4.7795-9.69861-3.79627-2.66636-9.07006-2.88772-14.33272-2.04409a2.32585,2.32585,0,0,1-2.1876-.872q-.11266-.14354-.23212-.28246a7.7254,7.7254,0,0,0-5.94-2.7089c-5.00512,0-8.05058,1.7763-9.58428,5.59a8.42186,8.42186,0,0,0,1.81436,8.60942,7.9458,7.9458,0,0,0,3.42317,2.149,1.4539,1.4539,0,0,1,.94654,1.95714c-8.81973,20.54019-29.22992,20.578-30.24508,20.5425-11.39068,0-15.45317-6.01969-15.70118-9.06687.05-.37845.262-1.298,1.083-1.10933,5.45276,3.20874,10.55364,3.36077,14.01365,3.46166l.75342.02117c9.05662,0,17.34711-5.83972,18.47926-13.0185a12.668,12.668,0,0,0-4.5494-11.57081l-1.40775-1.07091-.1872-.14249c-8.6906-5.93289-22.071-3.68671-30.82357,5.50814A25.753,25.753,0,0,0,307.953,102.175c0,8.08871,8.01691,19.48041,25.73438,19.479.18489.00418.3718.00563.56218.00563,11.33248,0,33.78293-6.80764,41.31582-32.95463l.14184-.65187c.04507-.30189.1001-.71529.14878-1.212,4.27857-.8889,7.32041-.76331,8.46123.03669.11844.0832.48042.33721.48042,1.69028l.02325.48252c.90653,9.46294,4.97421,31.47321,23.12414,31.47321,6.96653,0,12.77995-4.12561,16.831-11.31219a2.42882,2.42882,0,0,1,4.18035.00029c4.6066,7.45113,11.07118,12.01447,18.33468,12.01447,5.70379,0,10.91316-2.81723,15.11921-7.63378a.21127.21127,0,0,1,.374.13491l-.00015,1.83263a2.43786,2.43786,0,0,1-.65028,1.65208,175.56474,175.56474,0,0,0-12.60922,14.84008c-18.02513,24.856-16.22695,39.65652-11.54409,47.69445a16.34646,16.34646,0,0,0,14.1669,8.39818,8.97375,8.97375,0,0,0,.96922-.05222c12.5289-1.40811,20.43705-9.5777,19.78041-51.35054V121.49173a2.43046,2.43046,0,0,1,.66676-1.67461c2.81752-2.96882,5.70032-5.9422,8.4748-8.78051a2.44461,2.44461,0,0,1,3.86762.44885,20.81527,20.81527,0,0,0,11.662,9.2218,29.83163,29.83163,0,0,0,9.614,1.5337,35.627,35.627,0,0,0,10.51608-1.6268,34.48306,34.48306,0,0,0,12.807-7.14577,2.403,2.403,0,0,1,3.48009.216,20.9014,20.9014,0,0,0,15.29124,7.60843c.2314.01972.65607.048,1.23471.048A21.54364,21.54364,0,0,0,565.129,115.501c5.78352-5.41346,8.78637-13.92178,8.947-25.32431a2.51968,2.51968,0,0,1,2.37162-2.45851c5.529-.33337,8.91882-.147,10.35243.5863.0234.01185.092.03777.114.04991a.84443.84443,0,0,1,.50613.8837c-.00664.17854-.02109.18569-.06413.59157l-.07511.53878c-.20251,1.7425-1.76135,17.26392,5.73673,25.68426a15.69986,15.69986,0,0,0,12.08041,5.25566,20.2689,20.2689,0,0,0,14.69079-5.71037,2.3717,2.3717,0,0,1,3.27035.0156,22.36812,22.36812,0,0,0,8.47148,5.09367,29.83016,29.83016,0,0,0,9.61389,1.5337,35.62886,35.62886,0,0,0,10.51637-1.6268,33.92833,33.92833,0,0,0,14.45593-8.67615,2.25911,2.25911,0,0,1,3.51981.31756,20.20243,20.20243,0,0,0,3.32971,3.958,19.593,19.593,0,0,0,13.045,5.10045c.496,0,.8291-.024.95535-.03531,6.87119-.48374,15.77643-5.30311,19.39619-17.15754A2.40033,2.40033,0,0,0,704.55967,101.06616ZM323.94144,91.32791a5.3742,5.3742,0,0,1,1.60188-2.18941c5.30889-3.8045,11.93279-4.48953,15.71288-1.21376l.26592.22721a2.57458,2.57458,0,0,1,.9087,2.10079c-.24209,1.53226-3.7044,4.45428-8.42035,4.48252l-.52707-.017c-2.75021-.08038-5.74973-.19009-8.91969-1.95519A1.46262,1.46262,0,0,1,323.94144,91.32791Zm134.95177,82.44191a6.90034,6.90034,0,0,1-12.39414.48916q-.09533-.17983-.18647-.36739c-2.19107-4.51639-3.62395-15.18566,11.3995-35.90207.52895-.72944,1.873-2.47649,2.50653-3.28068a1.28222,1.28222,0,0,1,2.11379-.15318,4.284,4.284,0,0,1,.45182,2.2656C463.1179,158.05687,461.26325,168.54045,458.89321,173.76982Zm67.35672-70.51548a24.4591,24.4591,0,0,1-25.42181,7.87991c-2.03738-.6942-5.62319-2.39856-6.74639-6.02316-.78534-2.5347-.13188-5.33041,1.56664-7.93711.0715-.10971.20222-.27307.27762-.37989a19.58137,19.58137,0,0,1,3.41176-3.62741c.08031-.07338.1456-.15131.23053-.21941a25.00636,25.00636,0,0,1,8.217-4.31844,25.63709,25.63709,0,0,1,7.52726-1.16118,19.76641,19.76641,0,0,1,6.349.98337c2.0381.69275,5.62406,2.39856,6.74639,6.02179C529.53083,98.096,527.53808,101.53018,526.24993,103.25434Zm122.41636,7.70073a23.0403,23.0403,0,0,1-13.87584.17918c-2.03723-.6942-5.6232-2.39856-6.7461-6.02316a7.07954,7.07954,0,0,1-.236-1.16559l-.0052-.07395c-.01647-.16286,0-.89577,0-.89577.50382-6.12138,5.35713-10.1596,10.31039-12.8924l.35013-.18973a26.23292,26.23292,0,0,1,3.28408-1.26482,25.543,25.543,0,0,1,7.52234-1.16263c5.659,0,10.49528,2.05558,12.47416,5.57661a.72249.72249,0,0,1,.048.10379c.223.59677.43853,1.20552.67166,1.78532a.64694.64694,0,0,1,.03235.10313C663.83606,100.98469,657.68623,108.15921,648.66629,110.95507ZM671.48436,80.59a1.56051,1.56051,0,0,1-3.02234-.027,119.7359,119.7359,0,0,1-2.68781-15.79262c-3.77-35.26009,1.17173-45.01654,3.4707-47.57594a2.89154,2.89154,0,0,1,2.26025-1.20206c1.30866,0,1.36731.06486,1.61344.33858,1.28872,1.42927,5.19506,8.96916,1.3439,45.93925A128.48581,128.48581,0,0,1,671.48436,80.59Z"/></svg>