<svg id="Layer_2" data-name="Layer 2" xmlns="http://www.w3.org/2000/svg" viewBox="0 0 720 208"><defs><style>.cls-1{fill:#66459a;}</style></defs><title>lumberyard-horizontal-color</title><path class="cls-1" d="M271.46506,86.30111c-1.08272.33538-2.14006.71706-3.18124,1.14519a1.01248,1.01248,0,0,1-1.36516-1.1462c.74576-3.84522,1.31352-7.91748,1.79617-12.2517,4.05424-36.40712.15694-46.01224-3.691-50.31249a11.51306,11.51306,0,0,0-9.30356-3.75073A13.19537,13.19537,0,0,0,245.66,24.66444c-6.92794,7.765-8.79278,24.69129-5.70155,51.74544,1.43224,12.53025,4.38024,23.05509,8.73768,31.40128a2.56608,2.56608,0,0,1,.22835,1.85452,13.211,13.211,0,0,1-3.42085,6.28071,9.45946,9.45946,0,0,1-6.55809,2.532c-8.28647-.58334-10.78109-11.31005-10.88322-11.76653-3.02517-13.50529-10.45885-21.569-19.88661-21.569-6.49058,0-12.13559,4.86311-16.00908,12.85214a.79481.79481,0,0,1-1.42474,0c-3.87363-7.989-9.51863-12.85214-16.00951-12.85214-4.2455,0-8.12808,2.08359-11.391,5.7586v-.13812a2.49813,2.49813,0,0,0-2.49809-2.49809l-5.4546.00015a2.16307,2.16307,0,0,0-2.16862,2.10674c-.367,18.11416-5.43238,28.09353-8.97338,28.09353-4.25878,0-10.6331-11.34179-11.007-28.60229a1.6205,1.6205,0,0,0-1.612-1.59805l-6.94526-.00008a1.59081,1.59081,0,0,0-1.5811,1.563c-.45784,16.95578-8.30811,28.63742-15.37525,28.63742-7.07262,0-14.92953-11.69945-15.37626-28.67622a1.55054,1.55054,0,0,0-1.54158-1.52434l-7.29578.00115A1.32448,1.32448,0,0,0,82.2333,89.5684l-.00432.61817c-.06448,12.42113-2.72716,21.30868-7.71021,25.72036a11.771,11.771,0,0,1-8.54482,3.0815l-.236-.031c-.45928-.05662-6.97987-1.00144-13.217-9.19776a1.85233,1.85233,0,0,1-.03822-2.15312A67.0436,67.0436,0,0,0,63.707,78.11619c2.92853-24.6504,1.38565-39.404-4.85553-46.4307a13.9195,13.9195,0,0,0-11.17821-4.62293A13.55109,13.55109,0,0,0,37.324,31.87006c-6.69412,7.55924-8.463,23.41188-5.40757,48.4625,1.36964,11.23468,3.98355,19.88055,7.16321,26.53363a1.75233,1.75233,0,0,1-.23772,1.89527,95.951,95.951,0,0,1-22.13514,18.80865,2.48865,2.48865,0,0,0-.8978,3.29253l1.24038,2.34684L18.2,135.39571a2.49754,2.49754,0,0,0,3.493.98023,104.59836,104.59836,0,0,0,22.18823-17.96421,1.85768,1.85768,0,0,1,2.74561.00779c8.04385,9.001,16.45264,10.38968,17.93522,10.56862a21.58613,21.58613,0,0,0,16.37821-5.281,26.68267,26.68267,0,0,0,6.13718-7.80837,1.09546,1.09546,0,0,1,1.90984-.04176c4.62373,7.86066,11.25712,12.7084,18.73883,12.7084,7.50883,0,14.1604-4.88777,18.78585-12.79985a1.17037,1.17037,0,0,1,2.0691.08114c3.805,7.907,9.32289,12.71871,15.66562,12.71871a12.876,12.876,0,0,0,8.995-3.69585,2.498,2.498,0,0,0,2.49808,2.49816h5.86311a1.858,1.858,0,0,0,1.7366-1.85078l.00418-.65871c.14036-18.09973,6.79322-29.61563,11.38867-29.61563,4.53761,0,11.0807,11.22675,11.38045,28.93284l.00765.35182a.93666.93666,0,0,0,.89635.91439h8.93069c.79235,0,.83952-.68684.84414-1.02676.2445-17.84427,6.8261-29.17229,11.38405-29.17229,4.23267,0,8.17021,5.36826,10.03072,13.67572,3.05892,13.66729,12.70219,19.11871,19.938,19.62733.14511.01269.50025.03808,1.02229.03808a19.55967,19.55967,0,0,0,13.05083-5.08929c.37476-.34288.7325-.70544,1.07335-1.07977a1.33893,1.33893,0,0,1,1.98341-.03339,22.16082,22.16082,0,0,0,8.97757,5.60079,29.79365,29.79365,0,0,0,9.60086,1.53155,35.57884,35.57884,0,0,0,10.502-1.62452c15.02069-4.65394,23.95585-17.435,20.34244-29.09583C301.08236,87.13241,286.4872,81.64435,271.46506,86.30111ZM47.87227,95.47557a1.38629,1.38629,0,0,1-2.54511-.20966,88.32733,88.32733,0,0,1-3.38579-16.15636c-3.60072-29.527.85943-38.19089,2.9441-40.54537a3.59146,3.59146,0,0,1,2.78774-1.40195c1.61889,0,2.5855.05777,3.6274,1.23007,1.84436,2.07689,5.76848,9.98839,2.37707,38.5319A54.236,54.236,0,0,1,47.87227,95.47557ZM258.677,72.92968a108.069,108.069,0,0,1-3.20014,17.88978,1.33816,1.33816,0,0,1-2.58146-.01449,103.09876,103.09876,0,0,1-2.902-15.542c-3.68381-32.23085,1.01233-41.41894,3.20259-43.87339a3.18741,3.18741,0,0,1,2.5242-1.30473c1.43166,0,1.50494.08172,1.77757.38608C258.73,31.84893,262.45735,38.98127,258.677,72.92968Zm22.687,45.31342a23.00843,23.00843,0,0,1-13.85689.17894c-2.03448-.69325-5.61558-2.39531-6.737-6.01507-1.12167-3.61824.86852-7.04774,2.15506-8.76956A23.02042,23.02042,0,0,1,274.455,95.94712a25.50608,25.50608,0,0,1,7.51215-1.16105c6.3798,0,11.72274,2.61089,13.08243,6.99711C296.92224,107.82638,290.65568,115.36312,281.36408,118.2431Z"/><path class="cls-1" d="M707.09177,108.293l-5.19639-1.16372a2.4108,2.4108,0,0,0-2.80505,1.52967c-1.15312,3.245-4.11539,9.27472-10.31142,9.74756l-.12261.00534a9.52778,9.52778,0,0,1-6.29614-2.44277c-2.2445-2.05394-3.66044-5.47832-4.20195-9.99336a2.61329,2.61329,0,0,1,.31418-1.55412c5.13984-9.43736,7.21759-20.4781,8.60785-33.82652,4.08655-39.228.071-49.29525-3.8846-53.68428a11.30707,11.30707,0,0,0-9.11359-3.67609,12.86584,12.86584,0,0,0-9.76847,4.54965c-7.16394,7.97071-9.12629,26.07074-5.99668,55.33563.367,3.4357.84529,6.71309,1.41507,9.85625a1.82876,1.82876,0,0,1-2.15968,2.10393,31.66093,31.66093,0,0,0-6.44991-.46981v-.00563c-.14049,0-.2657.01587-.405.01724-.40765.01587-.81241.02149-1.22438.05251a28.49461,28.49461,0,0,0-12.79018,3.36609,31.52082,31.52082,0,0,0-11.95961,9.47768,22.5538,22.5538,0,0,0-4.02351,8.56234,17.30993,17.30993,0,0,1-2.17454,5.57389c-2.83158,4.45524-5.62682,6.75355-10.78023,6.75355a5.56162,5.56162,0,0,1-4.51381-1.85705c-3.72679-4.17064-3.62062-14.09-3.27039-17.55751.97656-4.7723-.65777-7.87212-2.222-9.64464-4.91021-5.56552-14.88034-4.95823-23.36126-4.1622-.10328-.131-.21175-.262-.324-.39027a10.24721,10.24721,0,0,0-8.05452-3.41543,7.5238,7.5238,0,0,0-5.74742,2.29953,6.885,6.885,0,0,0-1.79069,5.26542c.24233,3.23223,2.82582,5.72614,6.64493,6.48.21579.06808.43793.126.6683.17447a1.11947,1.11947,0,0,1,.89664,1.08835c-.03894,8.63526-1.96509,15.01088-5.62091,18.52938a11.39027,11.39027,0,0,1-8.12549,3.21673l-.18752-.01551c-10.61118-.70307-11.14864-10.79574-11.14864-12.812V88.20432a2.426,2.426,0,0,0-2.426-2.426h-5.248a2.42566,2.42566,0,0,0-2.42567,2.42567,17.72718,17.72718,0,0,0-3.90509-2.06383,34.565,34.565,0,0,0-36.51119,11.11554c-.43909.52066-.869,1.03043-1.308,1.5511-1.94792,2.01081-4.20065,4.30234-6.61637,6.75953q-1.692,1.72059-3.45921,3.5203a2.31383,2.31383,0,0,1-3.96552-1.619V89.2843a1.85887,1.85887,0,0,0-1.85878-1.85878h-7.006c-1.42618,0-1.31627,1.58594-1.31627,1.58594-.26339,17.32231-8.22906,29.3148-15.39025,29.3148-7.12715,0-15.31957-11.87673-15.38852-29.06814-.00029-.0727-.00592-.06729-.00592-.14013,0-1.76993-1.91172-1.69247-1.91172-1.69247h-6.63829a2.41546,2.41546,0,0,0-2.42135,2.32867c-.4776,16.04529-5.8745,27.87038-12.92693,27.87038-9.7376,0-12.34272-15.26505-13.01838-22.08041-.08323-5.28373-2.62993-8.18066-4.773-9.68546-3.79113-2.66274-9.05777-2.8838-14.3133-2.04132a2.32271,2.32271,0,0,1-2.18464-.87083q-.11252-.14334-.2318-.28208a7.71492,7.71492,0,0,0-5.93192-2.70522c-4.99833,0-8.03966,1.77389-9.57128,5.58239a8.41047,8.41047,0,0,0,1.81189,8.59776,7.93514,7.93514,0,0,0,3.41854,2.14605,1.45194,1.45194,0,0,1,.94526,1.95449c-8.80779,20.51236-29.19032,20.55015-30.2041,20.51467-11.37525,0-15.43223-6.01154-15.6799-9.0546.04991-.37793.26167-1.29628,1.08157-1.10782,5.44536,3.2044,10.53934,3.35622,13.99466,3.457l.75239.02114c9.04435,0,17.32361-5.83181,18.45423-13.00086A12.65078,12.65078,0,0,0,350.886,87.51431l-1.40584-1.06946-.18694-.1423c-8.67883-5.92484-22.0411-3.68171-30.78181,5.50068a25.7181,25.7181,0,0,0-7.48892,17.597c0,8.07774,8.00605,19.454,25.69951,19.45264.18464.00418.3713.00562.56142.00562,11.31712,0,33.73715-6.79841,41.25983-32.91l.14165-.651c.045-.30148.1-.71432.14858-1.21031,4.27277-.8877,7.31049-.76228,8.44976.03664.11828.08308.47977.33674.47977,1.688l.02322.48186c.9053,9.45012,4.96747,31.43056,23.09281,31.43056,6.95708,0,12.76263-4.12,16.80821-11.29686a2.42553,2.42553,0,0,1,4.17469.00029c4.60035,7.441,11.05617,11.99819,18.30983,11.99819,5.69607,0,10.89837-2.81341,15.09873-7.62343a.211.211,0,0,1,.37346.13472l-.00015,1.83015a2.43454,2.43454,0,0,1-.6494,1.64984,175.32657,175.32657,0,0,0-12.59213,14.82c-18.00071,24.82234-16.205,39.60278-11.52845,47.62983a16.32428,16.32428,0,0,0,14.1477,8.38679,8.96529,8.96529,0,0,0,.96791-.05214c12.51193-1.40621,20.40936-9.56473,19.75361-51.281V128.69084a2.42719,2.42719,0,0,1,.66585-1.67234c2.8137-2.9648,5.6926-5.93414,8.46332-8.76862a2.44131,2.44131,0,0,1,3.86238.44825,20.787,20.787,0,0,0,11.64615,9.2093,29.79114,29.79114,0,0,0,9.601,1.53163,35.57876,35.57876,0,0,0,10.50183-1.6246,34.43645,34.43645,0,0,0,12.78961-7.13609,2.39975,2.39975,0,0,1,3.47536.21572,20.8731,20.8731,0,0,0,15.27053,7.59812c.23109.01969.65518.04789,1.233.04789a21.51446,21.51446,0,0,0,14.5979-5.83187c5.77569-5.40613,8.77447-13.90291,8.93487-25.29a2.51626,2.51626,0,0,1,2.36841-2.45517c5.52152-.33292,8.90674-.14677,10.3384.5855.02337.01183.09188.03772.11381.04984a.84328.84328,0,0,1,.50544.88251c-.00663.17829-.02106.18543-.064.59077l-.075.538c-.20224,1.74014-1.759,17.24053,5.72895,25.64946a15.67861,15.67861,0,0,0,12.064,5.24854,20.24144,20.24144,0,0,0,14.67089-5.70263,2.36847,2.36847,0,0,1,3.26592.01558,22.3379,22.3379,0,0,0,8.46,5.08676,29.7896,29.7896,0,0,0,9.60086,1.53163,35.5806,35.5806,0,0,0,10.50212-1.6246,33.88232,33.88232,0,0,0,14.43635-8.6644,2.256,2.256,0,0,1,3.515.31713,20.17473,20.17473,0,0,0,3.32521,3.95261,19.56645,19.56645,0,0,0,13.02732,5.09355c.49535,0,.828-.024.95406-.03527,6.86188-.48309,15.75506-5.29593,19.36991-17.13429A2.39707,2.39707,0,0,0,707.09177,108.293ZM326.9893,98.56789a5.36687,5.36687,0,0,1,1.59971-2.18644c5.30169-3.79935,11.91662-4.48344,15.69159-1.21212l.26556.22691a2.5711,2.5711,0,0,1,.90746,2.09794c-.24176,1.53018-3.69938,4.44825-8.40894,4.47645l-.52636-.01695c-2.74648-.08028-5.74193-.18983-8.9076-1.95254A1.46062,1.46062,0,0,1,326.9893,98.56789Zm134.7689,82.3302a6.891,6.891,0,0,1-12.37734.4885q-.0952-.1796-.18623-.36689c-2.18809-4.51028-3.619-15.16509,11.38406-35.85343.52823-.72845,1.87046-2.47313,2.50313-3.27623a1.28049,1.28049,0,0,1,2.11093-.153,4.27816,4.27816,0,0,1,.45121,2.26253C465.97717,165.20643,464.125,175.67581,461.7582,180.89809Zm67.26545-70.41993a24.426,24.426,0,0,1-25.38736,7.86923c-2.03462-.69325-5.61558-2.39531-6.73725-6.015-.78428-2.53127-.1317-5.32319,1.56451-7.92636.07141-.10956.202-.2727.27725-.37937a19.55475,19.55475,0,0,1,3.40714-3.6225c.0802-.07328.1454-.1511.23022-.21912a24.97251,24.97251,0,0,1,8.20583-4.31258,25.60244,25.60244,0,0,1,7.51706-1.15961,19.73991,19.73991,0,0,1,6.34042.982c2.03534.69182,5.61644,2.39531,6.73725,6.01363C532.3001,105.32685,530.31005,108.75634,529.02365,110.47816Zm122.25048,7.69029a23.00892,23.00892,0,0,1-13.857.17894c-2.03447-.69325-5.61557-2.39531-6.737-6.015a7.07053,7.07053,0,0,1-.2357-1.164l-.00519-.07386c-.01645-.16264,0-.89455,0-.89455.50314-6.11309,5.34987-10.14583,10.29642-12.87493l.34966-.18947a26.1972,26.1972,0,0,1,3.27962-1.26311,25.50843,25.50843,0,0,1,7.51215-1.16105c5.65135,0,10.48106,2.05279,12.45726,5.569a.7211.7211,0,0,1,.04789.10365c.22272.596.43794,1.20389.67075,1.7829a.6459.6459,0,0,1,.03231.103C666.42335,108.21159,660.28185,115.37639,651.27413,118.16845Zm22.78715-30.324a1.55839,1.55839,0,0,1-3.01824-.027,119.57273,119.57273,0,0,1-2.68417-15.77122c-3.76487-35.21231,1.17014-44.95554,3.466-47.51147a2.88762,2.88762,0,0,1,2.25719-1.20043c1.30689,0,1.36545.06477,1.61125.33812,1.287,1.42733,5.188,8.957,1.34209,45.877A128.31115,128.31115,0,0,1,674.06128,87.84449Z"/></svg>