<svg id="Layer_2" data-name="Layer 2" xmlns="http://www.w3.org/2000/svg" viewBox="0 0 1045.75 882.53962"><defs><style>.cls-1{fill:#fff;}</style></defs><title>lumberyardfoundation-stacked-white</title><path class="cls-1" d="M214.13281,822.29733H189.46973v25.88379H178.82129V786.9028H217.752v8.58594H189.46973v18.22363h24.66308Z"/><path class="cls-1" d="M292.3125,819.14108a37.59678,37.59678,0,0,1-3.11426,15.80371,23.55622,23.55622,0,0,1-8.90136,10.4375,26.11165,26.11165,0,0,1-26.59864,0,23.9022,23.9022,0,0,1-9.00683-10.374,36.39816,36.39816,0,0,1-3.21973-15.53027v-3.45117a37.25873,37.25873,0,0,1,3.17773-15.82422,23.88372,23.88372,0,0,1,8.96387-10.501,26.16515,26.16515,0,0,1,26.55664-.042,23.57327,23.57327,0,0,1,8.94434,10.35351,37.209,37.209,0,0,1,3.19824,15.71875Zm-10.64844-3.19824q0-10.18506-3.85058-15.61426a13.58828,13.58828,0,0,0-21.7168-.02148q-3.89355,5.40966-3.97754,15.29883v3.53515q0,10.10157,3.93555,15.61426a12.6704,12.6704,0,0,0,10.92187,5.51367,12.5236,12.5236,0,0,0,10.87891-5.38769q3.80859-5.38623,3.80859-15.74024Z"/><path class="cls-1" d="M364.97949,786.9028V827.853q0,9.76464-6.249,15.46679Q352.48,849.0239,342.085,849.02292q-10.522,0-16.709-5.61816-6.186-5.61915-6.18653-15.59375V786.9028H329.7959v40.92774q0,6.13623,3.11426,9.37109,3.11425,3.23585,9.1748,3.23535,12.28857,0,12.28906-12.94238V786.9028Z"/><path class="cls-1" d="M442.19238,848.18112H431.54492l-27.31445-43.47558v43.47558H393.582V786.9028h10.64844l27.39844,43.64356V786.9028h10.56347Z"/><path class="cls-1" d="M472.01465,848.18112V786.9028H490.1123a28.39718,28.39718,0,0,1,14.415,3.61914,24.69824,24.69824,0,0,1,9.74317,10.26953,32.6103,32.6103,0,0,1,3.45117,15.23536v3.07226a32.46415,32.46415,0,0,1-3.47266,15.31934A24.38356,24.38356,0,0,1,504.3584,844.604a29.69947,29.69947,0,0,1-14.709,3.57715Zm10.64844-52.69238v44.10645h6.94433q8.37452,0,12.85742-5.2295,4.48242-5.231,4.56641-15.01758v-3.40234q0-9.95508-4.335-15.20605-4.33594-5.25147-12.584-5.251Z"/><path class="cls-1" d="M578.98242,833.91354H555.24609l-4.96679,14.26758H539.21094L562.3584,786.9028h9.55371l23.18945,61.27832H583.99121Zm-20.748-8.58593h17.75976l-8.87988-25.41992Z"/><path class="cls-1" d="M658.50977,795.48874H639.40234v52.69238H628.83887V795.48874H609.89941V786.9028h48.61036Z"/><path class="cls-1" d="M695.02441,848.18112H684.419V786.9028h10.60546Z"/><path class="cls-1" d="M774.25684,819.14108a37.59678,37.59678,0,0,1-3.11426,15.80371,23.55624,23.55624,0,0,1-8.90137,10.4375,26.11163,26.11163,0,0,1-26.59863,0,23.90229,23.90229,0,0,1-9.00684-10.374A36.39816,36.39816,0,0,1,723.416,819.478v-3.45117a37.25873,37.25873,0,0,1,3.17773-15.82422,23.88365,23.88365,0,0,1,8.96387-10.501,26.16515,26.16515,0,0,1,26.55664-.042,23.57325,23.57325,0,0,1,8.94433,10.35351,37.20886,37.20886,0,0,1,3.19825,15.71875Zm-10.64844-3.19824q0-10.18506-3.85059-15.61426a13.58827,13.58827,0,0,0-21.71679-.02148q-3.89357,5.40966-3.97754,15.29883v3.53515q0,10.10157,3.93554,15.61426A12.67043,12.67043,0,0,0,748.9209,840.269a12.52357,12.52357,0,0,0,10.8789-5.38769q3.80861-5.38623,3.8086-15.74024Z"/><path class="cls-1" d="M850.71094,848.18112H840.06348L812.749,804.70554v43.47558H802.10059V786.9028H812.749l27.39844,43.64356V786.9028h10.56348Z"/><path class="cls-1" d="M558.20311,90.822c-.19442-3.27924-4.49628-5.793-9.60842-5.61461-5.11236.17833-9.099,2.98128-8.90457,6.26052s4.49606,5.793,9.60842,5.6146S558.39752,94.10118,558.20311,90.822Z"/><path class="cls-1" d="M306.29376,303.83218c.74849,0,1.50727-.00343,2.26606-.012,29.39777-.32532,64.59222-8.11564,84.49874-17.91461.17661.5265.37274,1.04773.52209,1.58174a48.0503,48.0503,0,0,1,1.19591,23.88821,38.9145,38.9145,0,0,1-4.14178,10.86182,33.59156,33.59156,0,0,1-7.2533,8.69481,33.96368,33.96368,0,0,1-9.82365,5.65012,42.5379,42.5379,0,0,1-11.66933,2.31165l1.09569,14.85489.25965-.01877c30.53424,18.0396,36.92254,37.87358,40.71174,39.75317,5.01493,2.48772,23.89443-4.31967,20.4857-19.89622-2.00383-9.15736-12.66438-15.826-22.71592-20.18527,1.84782-.17994,3.69886-.41341,5.55227-.67961a8.00336,8.00336,0,0,0,1.14826-.09763c.40536-.0691.8017-.15365,1.206-.22468.38411-.06759.76286-.14442,1.1459-.21362,1.83022-.31609,3.66131-.6502,5.49347-1.05009.0354-.00773.06566-.02479.10085-.03294,28.65015-5.89378,54.2364-16.69831,74.85771-30.81234,21.175,13.44494,44.19923,32.67551,51.88043,50.31189-.70342,2.956-3.17677,6.07-6.03273,6.37875l-.01352-.00311,7.75823,14.43537c24.63434-12.45235,42.29412-5.53209,54.375.05794l4.17632,2.13709c.6369.35761.06524.00923.6369.35761l2.05319-.71179c3.51839-2.2079,12.55343-10.63318,10.29789-19.20546-2.78214-10.57385-9.72644-14.60371-16.39779-13.39569-6.67156,1.209-23.58113,11.82984-22.30605,1.62562a.38679.38679,0,0,0-.08261-.10976,150.04075,150.04075,0,0,0,.08562-37.18208c-3.71367-29.17245-16.56559-51.78343-37.26716-65.88566a83.33477,83.33477,0,0,0,3.23234-14.49491c14.345,5.01793,28.25316,9.07216,46.15478,10.7011,6.45375.58346,21.10435.72327,32.11146.5928l1.50662,5.51728a.25556.25556,0,0,0,.32167.17532l5.986-2.17292a11.19264,11.19264,0,0,1,1.61263-.54785c.52467-.13851.8017-.15117.81715.2691a29.325,29.325,0,0,1-.54934,3.46668c-.62767,3.10895-.68454,3.5789-1.31243,6.68775l-.66584,3.90339c-.1616,1.45433.63077,2.22449,2.42387,1.50819,1.54847-.69773,3.5584-1.6448,3.649-1.688,10.25647-4.26742,21.41916-10.42182,31.64881-14.752,4.89454-2.07218,7.2636-6.97874,8.21552-11.75194.40836-2.04621.43261-7.42487-.18369-9.45928l16.17354,1.35545.073-.12146,4.8512-12.93969.00021-.00021,13.74526,1.37379,4.83575-12.92992,13.7429,1.37744,4.82051-12.91769,13.70963,1.39214,4.83254-12.93217v-.00022l13.72723,1.38356,4.82395-12.92735,13.73366,1.38195.00086-.00021,4.81666-12.92006,8.07582.81007v-.00032l1.99267-11.85076.04592-.42359-6.966-33.05994L596.367,200.59407a.68408.68408,0,0,0-.23419,1.11794l8.86916,8.94108a.68407.68407,0,0,0,.70089.16758l3.99315-1.32354a2.42745,2.42745,0,0,1,3.06067,1.362l2.2373,5.43371s.22039.70728-.98281.70728l-1.14591-.05482c-1.49439-.05022-3.32783-.19238-4.816-.26974a80.72788,80.72788,0,0,1-8.78461-1.24161c-1.44868-.2765-2.87055-.66791-4.31044-.98164-1.42787-.36437-2.83214-.82573-4.25142-1.22691l-4.18749-1.48248c-1.37358-.57885-2.76411-1.10234-4.12932-1.71714-2.72957-1.23828-5.42437-2.59255-8.08956-4.091-1.33345-.746-2.66948-1.489-3.98319-2.3137q-1.9857-1.18114-3.945-2.47656c-2.62034-1.689-5.21858-3.49458-7.83484-5.31568-2.61-1.82948-5.2203-3.72354-7.84257-5.634-.1721-.1264-.35064-.25225-.52317-.37865,2.95038-34.672,12.2-49.04174,19.48636-54.98015a18.98641,18.98641,0,0,1,8.34192-4.10873,22.95786,22.95786,0,0,0-.33,2.32818,43.50169,43.50169,0,0,0-.1927,6.56136l10.16935.76748c.25128-.85471.4663-1.70351.67381-2.54695.21287-.84248.545-1.64729.76007-2.4712.21244-.82542.5811-1.60641.85513-2.40425.2603-.80053.68733-1.55834.98754-2.343.29806-.78185.73518-1.543,1.0929-2.311.3442-.77069.80449-1.5401,1.1959-2.3079.85471-1.53077,1.748-3.10971,2.716-4.69917.9944-1.60533,1.99717-3.26206,3.01089-5.00527,1.02616-1.74407,2.04245-3.56013,2.97827-5.48757.46051-.97691.95535-1.91488,1.37359-2.93847.42638-1.03142.85964-1.95983,1.253-3.11915l.59312-1.67207.29034-.83518.20622-.7016.41222-1.4033.20451-.70213.05085-.17554.1515-.58883c.03648-.163.07532-.33079.12876-.65449.02425-.15343.05836-.37124.08562-.71608l.01888-.34882-.00172-.54269a7.244,7.244,0,0,0-.14613-1.22241c-.01609-.0972-.0779-.35031-.16738-.648l.00086.00075-.00622-.01792c-.06009-.19828-.13-.412-.21524-.624a34.2857,34.2857,0,0,0-9.41915-14.21016,51.961,51.961,0,0,0-4.94326-4.06656c1.22445.04366,2.41734.08208,3.53149.106,3.39157.1162,6.22178.18519,8.20178.19678,1.983.04238,3.09373.02264,3.09373.02264l1.22294-12.349s-1.15535-.24506-3.14115-.56126c-1.98838-.35289-4.82974-.776-8.24707-1.21672-.45643-.06276-.94826-.12382-1.42465-.18572l1.136-.25075c-6.05483-27.42442-33.49469-45.39663-61.1646-40.06626a49.88149,49.88149,0,0,0-32.55565,21.65628,49.32882,49.32882,0,0,0-8.09214,29.69122,52.8618,52.8618,0,0,0-4.7218,4.15744l-4.91623,5.10066q-4.79379,4.92368-9.75068,9.73363c-6.60976,6.416-13.40363,12.71094-20.25029,19.03808-13.671,12.65783-27.67184,25.4179-40.27033,40.07613A172.51073,172.51073,0,0,0,397.275,174.47821a123.31592,123.31592,0,0,0-11.9131,27.28354,114.58682,114.58682,0,0,0-3.23428,14.609c-.43518,2.42711-.68453,4.99112-.93689,7.54462l-.19141,1.91219-.09077,1.74911-.17854,3.49308-.04463.87327-.02511,1.11682-.02554,1.85566.03541,3.72139c.03755,1.20062.08326,2.40232.14592,3.60487-20.64921-6.85117-49.64334-11.29229-74.44505-11.01429-28.88019.31931-49.78454,6.39645-60.45389,17.57223a26.71825,26.71825,0,0,0-7.7887,19.68549C238.91468,290.69421,264.33741,303.83218,306.29376,303.83218Zm181.02389.12414c2.07357-17.48285-.65707-38.85082-3.95573-55.94291-1.79052-9.27709-1.13989-14.57657-.27982-17.38854.92359-3.0111,4.42567-4.69519,7.799-3.75615,14.83558,4.12632,26.85619,8.37442,37.488,12.23659C526.59765,263.24158,511.42238,286.08507,487.31765,303.95632Zm75.02744,59.41828-5.00828,1.04794c-10.03673-22.83275-37.186-43.52724-52.9907-54.11536,13.05513-11.06762,23.34422-23.62856,30.2205-37.088C569.95569,299.92152,564.1,352.06042,562.34509,363.3746ZM660.185,191.32191l121.85625-48.67179,1.24933,6.68218a2.11128,2.11128,0,0,1-2.4712,2.634,1.46027,1.46027,0,0,0-1.75061.82348l-4.46817,11.97586-13.7298-1.37851-4.81923,12.91855v.00011l-13.72766-1.38335-.00043.00032-4.82566,12.92532-13.718-1.38753-4.82331,12.92724v.00011l-13.73581-1.372-4.83554,12.92961v.00021l-13.73238-1.37626-4.27739,11.403a2.14546,2.14546,0,0,1-2.22035,1.38163l-1.118-.11062c-.83646-.08273-5.961-.5648-6.21791-1.36522L660.185,191.322Zm-27.78578,15.30345a10.51442,10.51442,0,0,1,8.94748-5.66536c4.29735-.29935,7.10374,1.79064,9.02817,5.62641.30322.23487,11.43049,28.35566,11.22341,27.92917a8.646,8.646,0,0,1-1.197,10.231c-1.90448,2.22421-6.47844,3.743-9.30928,4.89863-1.55476.6347-1.59568-.30353-2.14718-1.89-.17-.48894-.64805-1.83054-1.2562-3.56206.18841-.33862.38047-.67542.56094-1.0179a32.10692,32.10692,0,0,0,3.22226-10.54123,36.47631,36.47631,0,0,0,.22188-7.12155c-.071-1.17713-.20171-2.34578-.38948-3.52215-.09034-.58872-.19978-1.17627-.32917-1.7813l-.20944-.9208c-.08992-.35289-.13927-.56887-.30858-1.13131l-.01223-.04034a7.04571,7.04571,0,0,0-2.3446-3.47119,30.38164,30.38164,0,0,0-4.1098-2.85059,21.28636,21.28636,0,0,0-2.35189-1.19172,24.22472,24.22472,0,0,0-2.545-.96436,23.339,23.339,0,0,0-2.72162-.64849,21.2611,21.2611,0,0,0-2.76755-.31265l-.4326-.03269C632.78529,208.47111,632.09248,207.195,632.39924,206.62536ZM514.8824,51.15676a34.77418,34.77418,0,0,1,9.03912-9.30724c.33647-.06148.7002-.128,1.11757-.20429a16.082,16.082,0,0,1,1.98967-.22553,22.244,22.244,0,0,1,2.36841-.15751c.83153.01824,1.72808-.01234,2.64652.03025.90149.10408,1.85834.1602,2.818.29356.93475.20493,1.93387.31459,2.88128.5884a27.12429,27.12429,0,0,1,2.83557.87359,23.25205,23.25205,0,0,1,2.68493,1.112c.88067.3692,1.64847.86984,2.43365,1.27358.72681.47768,1.46521.88872,2.07014,1.35459a26.74872,26.74872,0,0,1,2.8669,2.31338c.28776.27574.51373.49237.6678.64011a2.74293,2.74293,0,0,1,.241.25665l5.98874-4.16967c-.01309-.0148-.0382-.08905-.25214-.41952-.20772-.33358-.47381-.72638-.80643-1.2091a34.5308,34.5308,0,0,0-3.02956-3.71774c-.65342-.74892-1.44654-1.45749-2.25961-2.25758-.86716-.72242-1.74332-1.5621-2.75961-2.27925-.23-.17618-.47639-.34657-.71372-.5206A37.87359,37.87359,0,0,1,580.298,60.1537c-2.94716-.22413-5.97286-.421-9.00778-.629-4.59134-.27779-9.1889-.56963-13.51457-.67939-4.32611-.13176-8.37046-.212-11.85645-.22918-1.76563.02028-3.38385.03884-4.81837.05536-1.45319.00708-2.61476.06835-3.62526.09045-1.9916.08026-3.12956.12618-3.12956.12618l.00086.059c-.60557.01781-1.21114.00987-1.81649.04936a73.75417,73.75417,0,0,0-7.75952.83088A72.77665,72.77665,0,0,0,509.761,64.01705l-.03862.01663A34.58529,34.58529,0,0,1,514.8824,51.15676ZM395.81474,233.34532l.00751-.63164.04377-.87327.17554-3.49318.089-1.74385.16845-1.56682c.21652-2.08666.40064-4.16742.79162-6.33379a99.48786,99.48786,0,0,1,2.79416-12.69152,108.17086,108.17086,0,0,1,10.41419-23.8762,157.56623,157.56623,0,0,1,15.6081-21.57065c11.72233-13.67819,25.32574-26.1563,39.00941-38.83237,6.8473-6.33884,13.73323-12.72832,20.50372-19.31136q5.069-4.95152,10.04274-10.04231l.8017-.83368c.22832.30568.47381.62327.7457.95267a42.85444,42.85444,0,0,0,4.413,4.6497,41.737,41.737,0,0,0,6.505,4.94476,49.37267,49.37267,0,0,0,8.38612,4.17343,45.04976,45.04976,0,0,0,4.71043,1.60459,48.48859,48.48859,0,0,0,4.94562,1.25427,82.82479,82.82479,0,0,0,10.31871,1.50083c3.49371.24173,7.01747.36877,10.50668.27435q3.20466-.066,6.35676-.29163l-.08133-6.49742c-2.03516-.13229-4.07461-.31308-6.10419-.54977-3.26346-.35461-6.47585-.9179-9.58653-1.558a73.43412,73.43412,0,0,1-8.83825-2.53676,38.47822,38.47822,0,0,1-3.97526-1.603,34.71051,34.71051,0,0,1-3.59478-1.79718,36.85828,36.85828,0,0,1-5.86686-3.98694,31.08044,31.08044,0,0,1-6.52778-7.54472c-.61887-1.003-.96307-1.87905-1.27036-2.42153l-.091-.17628,1.15-.67467,1.34719-.74043a57.81052,57.81052,0,0,1,17.492-5.92683,58.821,58.821,0,0,1,6.14324-.65975q1.54311-.10623,3.09372-.08638l.77467-.00482c.08326-.002.36051.00042.28454-.00537l.4369.01427,1.748.05665a91.42386,91.42386,0,0,1,12.73476,1.51253,86.32541,86.32541,0,0,1,24.24485,8.25,46.235,46.235,0,0,1,9.826,6.85643,21.51541,21.51541,0,0,1,4.93876,6.52864l-.09721.33937-.20128.703-.19743.54356-.3854,1.08442c-.21351.69591-.60986,1.53688-.90878,2.31509-.29184.794-.69355,1.59139-1.04032,2.38912-.33712.7943-.78218,1.60941-1.1635,2.41627-.377.81254-.82338,1.65866-1.23153,2.48729-.8635,1.6754-1.76241,3.42376-2.64351,5.238-.183.38143-.36631.77488-.55064,1.16028-2.41562-.31072-11.86331-.89494-21.99425,6.94387-12.974,10.03974-21.27946,29.29144-24.77639,57.24289-.56287-.38615-1.109-.78121-1.67508-1.16532-2.76733-1.871-5.60827-3.65455-8.4711-5.41912l-4.35636-2.56808-4.4482-2.43473c-3.00875-1.55619-6.0499-3.04833-9.1492-4.42642-3.11711-1.3385-6.2589-2.61562-9.46185-3.725-1.5841-.59635-3.21068-1.07788-4.83168-1.56392-1.61242-.49764-3.2302-.9855-4.91107-1.39043-1.64482-.39967-3.357-.9119-4.934-1.20889l-4.81279-.94075-2.01134,7.46264c3.08815,1.07959,6.23573,2.11176,9.05307,3.25842,1.44525.52992,2.89136,1.1591,4.33576,1.79836,1.44783.61876,2.88514,1.25416,4.2952,1.95382,2.85532,1.30889,5.63617,2.77335,8.38612,4.28019,2.75145,1.50737,5.44626,3.12,8.10823,4.78736l3.95508,2.57463,3.90358,2.67528,3.85058,2.78074,3.81838,2.85929q3.8082,2.9008,7.59215,5.90859l7.62926,6.07543c5.145,4.05325,10.3715,8.195,15.99007,12.0294q2.08483,1.458,4.26838,2.83708c1.42658.94537,2.91626,1.83076,4.407,2.71561,2.977,1.77454,6.10483,3.37108,9.293,4.87438,1.59826.74409,3.25081,1.40169,4.87653,2.10158,1.66392.62681,3.34372,1.22154,5.02759,1.80007,1.71478.49752,3.41539,1.0458,5.14584,1.48892,1.74331.39088,3.47182.865,5.23317,1.161a95.89593,95.89593,0,0,0,10.6011,1.31424c1.76928.06524,3.54221.18938,5.307.19506l2.2079-.05461a13.42549,13.42549,0,0,0,5.80634-1.481l1.25212-.64366a15.04751,15.04751,0,0,0,2.36734-1.6415c.30858-.32123.63647-.63807.97059-.94526a18.80462,18.80462,0,0,1,2.08923-1.65351,11.64712,11.64712,0,0,1,4.12654-1.86992,7.02986,7.02986,0,0,1,3.6186.15,9.36159,9.36159,0,0,1,.933.36191,7.1653,7.1653,0,0,1,.96758.4928c.01545.00837.03091.02092.04636.0294.07982.566.15514,1.13721.18819,1.71274a21.59613,21.59613,0,0,1-.12725,4.24027,16.825,16.825,0,0,1-2.72077,7.38667,14.44009,14.44009,0,0,1-1.18624,1.55845,15.84233,15.84233,0,0,1-1.39376,1.44128,20.665,20.665,0,0,1-1.591,1.32541l-.03218.02285c-.37553.26792-.75621.53444-1.14805.79237-.19828.13047-.39313.26373-.60493.38358a22.22612,22.22612,0,0,1-1.9431,1.08367c-.65235.3619-1.39675.63271-2.08666.96254l-1.803.68389c-.32639-1.6328-.61286-3.45809-.862-5.33671-10.55926.11577-24.53327-.02264-30.20184-.5369-20.68633-1.88323-35.35045-7.23077-53.91494-13.99976-11.80237-4.3055-25.18067-9.18267-42.33917-13.95683-11.27878-3.13643-22.71377,2.89952-26.03388,13.7474-1.9725,6.4428-2.00855,14.70875-.10472,24.57124,5.784,29.96278,5.9014,53.52461.34377,64.75563a200.60584,200.60584,0,0,1-56.08443,20.143c-.02833.0059-.05644.00354-.085.00976-.71758.15676-1.43431.28465-2.15146.42671q-1.52122.29469-3.05617.56727-5.1012.86264-10.16292,1.221a49.34908,49.34908,0,0,0,6.07157-8.20362,53.918,53.918,0,0,0,5.84668-15.15714,63.06779,63.06779,0,0,0-1.40534-31.41565c-.3545-1.26114-.765-2.50135-1.21908-3.72536-.41544-1.23979-.91672-2.44245-1.4195-3.64458-.47531-1.21564-1.05921-2.37742-1.61177-3.555l-1.49526-3.12376c-.76973-1.76531-1.5886-3.67762-2.25-5.68145-.691-1.97475-1.27229-4.00057-1.78-6.05376a84.11211,84.11211,0,0,1-2.07529-12.64516c-.2118-2.14685-.30278-4.31935-.37467-6.49356l-.03369-3.27312Zm-138.5021,26.33313c7.45052-7.80588,25.39527-12.43412,49.23348-12.6985,26.16864-.29645,58.33568,5.216,76.76626,12.98626.08433.359.15493.71962.24356,1.078.61715,2.47185,1.33044,4.93146,2.18322,7.35749.34377,1.02316.73733,2.04117,1.14268,3.06272-15.8759,8.15469-48.95193,16.277-78.49713,16.60325-26.803.26609-54.00592-5.81792-54.51407-20.14042A11.03325,11.03325,0,0,1,257.31264,259.67845Z"/><path class="cls-1" d="M388.38074,600.09365c-1.6107.49892-3.18363,1.06672-4.73253,1.70362a1.5062,1.5062,0,0,1-2.03087-1.70512c1.10943-5.72029,1.954-11.77834,2.67206-18.22608,6.03123-54.16054.23347-68.44945-5.49089-74.84666-4.99391-5.57973-10.96869-5.57973-13.84032-5.57973a19.62993,19.62993,0,0,0-14.966,6.961c-10.30625,11.55152-13.08046,36.73166-8.48182,76.97838,2.13065,18.64045,6.51619,34.29758,12.99848,46.71367a3.81743,3.81743,0,0,1,.3397,2.75886,19.6531,19.6531,0,0,1-5.089,9.3434,14.07227,14.07227,0,0,1-9.756,3.76667c-12.32726-.8678-16.03835-16.82524-16.19028-17.50431-4.50035-20.091-15.559-32.08678-29.584-32.08678-9.65563,0-18.05334,7.23453-23.81568,19.1193a1.18238,1.18238,0,0,1-2.11949,0c-5.76256-11.88477-14.16027-19.1193-23.81633-19.1193-6.31577,0-12.09163,3.09963-16.94562,8.5667v-.20547a3.7163,3.7163,0,0,0-3.71625-3.71624l-8.11445.00021a3.21786,3.21786,0,0,0-3.22612,3.13407c-.54592,26.94727-8.08141,41.79294-13.34913,41.79294-6.33551,0-15.81818-16.87246-16.37439-42.5498a2.41071,2.41071,0,0,0-2.398-2.37732l-10.332-.0001a2.36653,2.36653,0,0,0-2.3521,2.32517c-.6811,25.224-12.35944,42.602-22.87278,42.602-10.52149,0-22.2097-17.40453-22.87428-42.65977a2.30663,2.30663,0,0,0-2.2933-2.26767l-10.85346.00172a1.97033,1.97033,0,0,0-1.903,1.93709l-.00644.91962c-.09592,18.47811-4.057,31.69955-11.47,38.26253a17.51108,17.51108,0,0,1-12.71159,4.58415l-.35106-.04614c-.68325-.08423-10.38351-1.48978-19.66211-13.68292a2.75558,2.75558,0,0,1-.05686-3.20305,99.7364,99.7364,0,0,0,16.69756-43.87091c4.35658-36.67082,2.06134-58.61883-7.22326-69.072-6.10784-6.87724-13.48088-6.87724-16.62911-6.87724a20.15909,20.15909,0,0,0-15.39587,7.1518c-9.95841,11.24541-12.58991,34.82836-8.0445,72.09456,2.03752,16.71312,5.92608,29.575,10.65626,39.47238a2.60684,2.60684,0,0,1-.35365,2.81948,142.74013,142.74013,0,0,1-32.929,27.98041,3.70224,3.70224,0,0,0-1.3356,4.89809l1.84525,3.49125,1.71177,3.25231a3.71544,3.71544,0,0,0,5.19627,1.45823,155.604,155.604,0,0,0,33.008-26.72421,2.76356,2.76356,0,0,1,4.08448.01159c11.96632,13.39022,24.47554,15.45606,26.68108,15.72226a32.11224,32.11224,0,0,0,24.36481-7.8562,39.69421,39.69421,0,0,0,9.12989-11.616,1.62964,1.62964,0,0,1,2.84115-.06212c6.87842,11.69379,16.74649,18.90546,27.87655,18.90546,11.17041,0,21.06552-7.27122,27.94651-19.04151a1.74108,1.74108,0,0,1,3.07806.12071c5.66042,11.76278,13.86907,18.9208,23.30474,18.9208a19.15477,19.15477,0,0,0,13.38131-5.49808,3.71613,3.71613,0,0,0,3.71625,3.71636h8.72216a2.76406,2.76406,0,0,0,2.58344-2.75328l.00622-.97992c.20879-26.92582,10.10583-44.05728,16.94219-44.05728,6.75031,0,16.48405,16.70132,16.93,43.04152l.01137.52339a1.39341,1.39341,0,0,0,1.33345,1.36027h13.28561c1.17873,0,1.2489-1.02176,1.25577-1.52744.36373-26.54578,10.15476-43.39774,16.93533-43.39774,6.29667,0,12.15429,7.986,14.92205,20.3445,4.55057,20.33194,18.89624,28.44167,29.66043,29.19831.21588.01888.74419.05665,1.52079.05665a29.09774,29.09774,0,0,0,19.4149-7.571c.5575-.51007,1.08968-1.04944,1.59675-1.6063a1.99184,1.99184,0,0,1,2.95059-.04968A32.96712,32.96712,0,0,0,377.65,662.09976a44.32192,44.32192,0,0,0,14.28258,2.27839,52.92876,52.92876,0,0,0,15.62312-2.41669c22.34532-6.92338,35.63758-25.93689,30.26214-43.284C432.44049,601.33032,410.72821,593.16609,388.38074,600.09365ZM55.75607,613.74191a2.0623,2.0623,0,0,1-3.7862-.3119,131.39871,131.39871,0,0,1-5.03682-24.03478c-5.35656-43.92541,1.27852-56.81414,4.37975-60.31676a5.3428,5.3428,0,0,1,4.14714-2.08558c2.40832,0,3.84628.08594,5.39626,1.8299,2.74372,3.08965,8.58139,14.85908,3.5362,57.32143A80.68366,80.68366,0,0,1,55.75607,613.74191Zm313.60076-33.54008c-1.10406,9.918-2.48708,18.75751-4.76065,26.61348a1.9907,1.9907,0,0,1-3.84028-.02156,153.37428,153.37428,0,0,1-4.31709-23.12084c-5.48016-47.94777,1.506-61.61631,4.7643-65.26764a4.74164,4.74164,0,0,1,3.75508-1.941c2.12979,0,2.2388.12157,2.64438.57435C369.43558,519.08862,374.98055,529.699,369.35683,580.20183Zm33.75,67.40988c-7.11618,2.20715-14.63172,2.3036-20.614.26619-3.02655-1.03131-8.35393-3.56335-10.02214-8.94823-1.66864-5.38263,1.292-10.48447,3.206-13.04591,3.78234-5.06418,10.03373-9.23321,17.15207-11.44036a37.94367,37.94367,0,0,1,11.17534-1.72722c9.49082,0,17.43918,3.88405,19.46189,10.40915C426.25176,632.11541,416.92939,643.32734,403.10688,647.61171Z"/><path class="cls-1" d="M1036.43469,632.8095l-7.73034-1.7312a3.58639,3.58639,0,0,0-4.17289,2.27561c-1.71542,4.82738-6.12221,13.7974-15.33965,14.50082l-.1824.00794a14.17388,14.17388,0,0,1-9.36636-3.634c-3.339-3.05553-5.4454-8.14975-6.251-14.86648a3.88767,3.88767,0,0,1,.46737-2.312c7.64622-14.03935,10.73715-30.46395,12.80536-50.32155,6.07929-58.35692.10558-73.33337-5.77887-79.86266-4.92781-5.46868-10.756-5.46868-13.5577-5.46868a19.13973,19.13973,0,0,0-14.53194,6.76823c-10.65732,11.85752-13.57659,38.78376-8.92087,82.31927.54591,5.11107,1.25748,9.98663,2.10511,14.66251a2.72054,2.72054,0,0,1-3.21282,3.12989,47.0998,47.0998,0,0,0-9.59511-.69892V597.57c-.209,0-.39527.02361-.60257.02565-.60642.0236-1.20856.032-1.82142.07811a42.38971,42.38971,0,0,0-19.02714,5.00753A46.89134,46.89134,0,0,0,913.93,616.78059a33.55182,33.55182,0,0,0-5.98551,12.73766,25.751,25.751,0,0,1-3.23493,8.29191c-4.21237,6.62778-8.37067,10.04682-16.03706,10.04682a8.27368,8.27368,0,0,1-6.7149-2.76261c-5.54411-6.2044-5.38617-20.9608-4.86515-26.11918,1.45276-7.09945-.97852-11.71085-3.30552-14.34771-7.3046-8.27947-22.13653-7.376-34.753-6.19185-.15365-.19484-.315-.3898-.482-.58057-2.02271-2.3183-5.742-5.08092-11.9822-5.08092a11.19263,11.19263,0,0,0-8.55006,3.42087,10.24224,10.24224,0,0,0-2.6639,7.833c.36051,4.8084,4.20379,8.51842,9.88523,9.63986.321.10128.65149.18744.99419.25954a1.66537,1.66537,0,0,1,1.33388,1.61907c-.05794,12.84613-2.92334,22.33073-8.36187,27.565a16.9445,16.9445,0,0,1-12.08777,4.78533l-.279-.02307c-15.78556-1.04591-16.58511-16.06013-16.58511-19.05965V602.92493a3.609,3.609,0,0,0-3.60895-3.609h-7.80716a3.60851,3.60851,0,0,0-3.60852,3.60852,26.37136,26.37136,0,0,0-5.80935-3.07022,48.81352,48.81352,0,0,0-29.76643.12832c-10.53136,3.26282-19.04709,9.21357-24.54893,16.40755-.65321.77455-1.29268,1.53291-1.94589,2.30747-2.8978,2.99136-6.249,6.40032-9.84274,10.05572q-2.51713,2.55962-5.146,5.23693a3.44214,3.44214,0,0,1-5.89925-2.40854V604.53156a2.76533,2.76533,0,0,0-2.76519-2.76519H679.08448c-2.12164,0-1.95812,2.35929-1.95812,2.35929-.39184,25.7693-12.24185,43.60976-22.8951,43.60976-10.6026,0-22.78994-17.66826-22.89252-43.24281-.00043-.10815-.0088-.10011-.0088-.20847,0-2.633-2.84394-2.51777-2.84394-2.51777h-9.87536a3.59333,3.59333,0,0,0-3.60209,3.46421c-.7105,23.86954-8.73911,41.461-19.23056,41.461-14.486,0-18.36148-22.70883-19.36662-32.8476-.12381-7.86027-3.91237-12.16985-7.10052-14.40844-5.63981-3.9612-13.47465-4.29006-21.293-3.03675a3.45535,3.45535,0,0,1-3.25-1.29547q-.16737-.21325-.34484-.41963a11.477,11.477,0,0,0-8.82452-4.02439c-7.43571,0-11.9601,2.6389-14.2386,8.30457a12.51172,12.51172,0,0,0,2.69545,12.79034,11.80469,11.80469,0,0,0,5.08553,3.19254,2.15994,2.15994,0,0,1,1.4062,2.90757c-13.10277,30.51491-43.42456,30.57114-44.93269,30.51835-16.92224,0-22.95754-8.943-23.326-13.46994.07425-.56222.38926-1.9284,1.609-1.648,8.10072,4.767,15.6787,4.99283,20.819,5.14272l1.1193.03144c13.4547,0,25.77122-8.6756,27.45317-19.34054a18.81981,18.81981,0,0,0-6.75868-17.18983l-2.09138-1.591-.27811-.21169c-12.91093-8.814-32.78913-5.47705-45.79212,8.183-7.18421,7.55008-11.14079,16.84831-11.14079,26.178,0,12.01674,11.91009,28.94048,38.23152,28.93844.27467.00622.55235.00837.83518.00837,16.83576,0,50.18861-10.11356,61.37962-48.958l.21072-.96844c.067-.44849.14871-1.06264.221-1.80051,6.35633-1.32057,10.87534-1.134,12.57017.05451.176.1236.71372.501.71372,2.51111l.03455.71684c1.34675,14.05834,7.38978,46.75723,34.35369,46.75723,10.3496,0,18.98615-6.12908,25.0045-16.80561a3.6083,3.6083,0,0,1,6.21041.00043c6.84365,11.06955,16.44756,17.84894,27.23836,17.84894,8.47367,0,16.21281-4.18534,22.46141-11.3409a.31386.31386,0,0,1,.55557.20043l-.00021,2.72259a3.62168,3.62168,0,0,1-.96608,2.45435,260.82817,260.82817,0,0,0-18.73251,22.04672c-26.7785,36.92661-24.10709,58.91453-17.15013,70.85585a24.28462,24.28462,0,0,0,21.04663,12.4765,13.3349,13.3349,0,0,0,1.43989-.07757c18.6132-2.09192,30.3617-14.22883,29.38619-76.28741V663.15414a3.6107,3.6107,0,0,1,.99054-2.48783c4.18576-4.41055,8.46852-8.82785,12.59033-13.04452a3.63179,3.63179,0,0,1,5.74583.66684c3.49758,6.19506,9.5685,11.05989,17.32523,13.70008a44.31845,44.31845,0,0,0,14.2828,2.2785,52.92856,52.92856,0,0,0,15.6229-2.4168,51.2291,51.2291,0,0,0,19.02628-10.61591,3.57,3.57,0,0,1,5.17008.32091c5.0085,6.153,12.50536,10.59961,22.717,11.30324.34377.02929.97466.07124,1.8343.07124a32.00564,32.00564,0,0,0,21.71636-8.6757c8.59213-8.04235,13.05321-20.68247,13.29183-37.62231a3.74328,3.74328,0,0,1,3.52333-3.6524c8.214-.49527,13.25-.21835,15.37977.871.03477.0176.1367.05612.16931.07414a1.25452,1.25452,0,0,1,.75192,1.31286c-.00987.26523-.03133.27585-.09527.87884l-.11159.80042c-.30085,2.58869-2.61669,25.64762,8.5226,38.15706a23.324,23.324,0,0,0,17.94689,7.80791c9.74683,0,16.61431-3.50734,21.82495-8.48344a3.52344,3.52344,0,0,1,4.8585.02318,33.23051,33.23051,0,0,0,12.5854,7.56725,44.31614,44.31614,0,0,0,14.28258,2.2785,52.93146,52.93146,0,0,0,15.62334-2.4168,50.40475,50.40475,0,0,0,21.476-12.88948,3.35617,3.35617,0,0,1,5.22909.47177,30.01291,30.01291,0,0,0,4.94669,5.88005,29.1078,29.1078,0,0,0,19.37992,7.57734c.7369,0,1.23174-.03562,1.41929-.05247,10.208-.71866,23.43779-7.8784,28.81538-25.48958A3.566,3.566,0,0,0,1036.43469,632.8095Zm-565.4541-14.46735a7.98394,7.98394,0,0,1,2.37979-3.25262c7.887-5.652,17.72759-6.66974,23.34337-1.80319l.39506.33755a3.82486,3.82486,0,0,1,1.35,3.121c-.35965,2.27636-5.50333,6.61738-12.50944,6.65933l-.783-.02522c-4.08576-.11941-8.54191-.28239-13.25127-2.90467A2.17286,2.17286,0,0,1,470.98059,618.34215ZM671.46766,740.81952a10.25129,10.25129,0,0,1-18.413.72671q-.14163-.26717-.277-.54581c-3.25509-6.70964-5.38381-22.56012,16.93533-53.33684.78582-1.08367,2.78257-3.67912,3.72375-4.87384.9429-1.1974,2.35661-1.25706,3.14029-.22757a6.36437,6.36437,0,0,1,.67123,3.36582C677.74394,717.47605,674.98863,733.05067,671.46766,740.81952ZM771.53415,636.0603c-3.78233,5.06407-10.03416,9.23321-17.15335,11.44036-7.11618,2.20715-14.63064,2.3036-20.6138.26619-3.02677-1.03131-8.35393-3.56335-10.02257-8.94812-1.16672-3.7656-.19592-7.919,2.32743-11.79154.10622-.163.30042-.40568.41243-.56436a29.09131,29.09131,0,0,1,5.06859-5.389c.11931-.109.2163-.22478.34248-.326a37.1502,37.1502,0,0,1,12.2073-6.41555,38.08709,38.08709,0,0,1,11.18263-1.72508,29.36555,29.36555,0,0,1,9.43224,1.46092c3.02785,1.02917,8.35522,3.56335,10.02258,8.94609C776.40832,628.397,773.44785,633.49886,771.53415,636.0603Zm181.86422,11.44036c-7.11662,2.20715-14.63194,2.3036-20.61424.26619-3.02655-1.03131-8.35393-3.56335-10.02214-8.94812a10.51875,10.51875,0,0,1-.35064-1.73163l-.00772-.10986c-.02447-.242,0-1.33078,0-1.33078.74848-9.094,7.95866-15.09329,15.31733-19.1532q.25943-.14067.52016-.28186a38.9714,38.9714,0,0,1,4.87888-1.87905,37.9474,37.9474,0,0,1,11.17535-1.72722c8.40715,0,15.592,3.05381,18.53186,8.28472a1.07252,1.07252,0,0,1,.07124.15419c.33133.88657.6515,1.79095.99784,2.65231a.96114.96114,0,0,1,.04807.15322C975.93488,632.68847,966.79856,643.34708,953.39837,647.50066Zm33.899-45.111a2.31832,2.31832,0,0,1-4.49-.04013,177.88262,177.88262,0,0,1-3.99307-23.46182c-5.60076-52.3831,1.74074-66.87748,5.15613-70.67978a4.29578,4.29578,0,0,1,3.35789-1.7858c1.94417,0,2.03129.09635,2.39695.503,1.91456,2.12336,7.71789,13.32477,1.99653,68.24828A190.88112,190.88112,0,0,1,987.29735,602.38964Z"/></svg>