<svg id="Layer_2" data-name="Layer 2" xmlns="http://www.w3.org/2000/svg" viewBox="0 0 720 519"><title>lumberyard-stacked-black</title><path d="M380.61028,64.55052c-.125-2.109-2.89168-3.72566-6.17944-3.6109s-5.85181,1.91734-5.72677,4.02631,2.89154,3.72566,6.17944,3.6109S380.73532,66.65949,380.61028,64.55052Z"/><path d="M218.60037,201.54333c.48137,0,.96937-.0022,1.45736-.00773,18.90653-.20922,41.54106-5.21938,54.3435-11.52137.11358.3386.23972.67382.33577,1.01725a30.90261,30.90261,0,0,1,.76912,15.36317,25.02725,25.02725,0,0,1-2.66369,6.98555,21.60368,21.60368,0,0,1-4.66481,5.59187,21.84293,21.84293,0,0,1-6.31786,3.63375,27.3574,27.3574,0,0,1-7.50486,1.48669l.70466,9.55359.167-.01208c19.63742,11.60177,23.74591,24.35756,26.18285,25.56637,3.22525,1.59993,15.36718-2.77809,13.17492-12.79581-1.28871-5.88935-8.14481-10.17815-14.60923-12.98171,1.18838-.11572,2.37884-.26587,3.57081-.43707a5.14643,5.14643,0,0,0,.73848-.06279c.2607-.04444.5156-.09882.77561-.1445.247-.04347.49062-.09288.737-.13738,1.17707-.20329,2.35469-.41817,3.533-.67534.02277-.005.04223-.01594.06486-.02119,18.42571-3.79045,34.88094-10.73915,48.14308-19.81627,13.6182,8.64681,28.42575,21.01452,33.36575,32.357-.45239,1.901-2.04307,3.90376-3.87982,4.10235l-.00869-.002,4.98953,9.28379c15.843-8.00846,27.20052-3.55785,34.97009.03726l2.68591,1.37442c.40961.23.04195.00593.40961.23l1.32046-.45777c2.26277-1.42,8.07346-6.8385,6.62285-12.35157-1.78927-6.80034-6.25534-9.39205-10.54587-8.61514-4.29066.77754-15.16568,7.6081-14.34564,1.04548a.24869.24869,0,0,0-.05313-.07059,96.4953,96.4953,0,0,0,.05507-23.91283c-2.38837-18.76162-10.6538-33.30337-23.96755-42.3729a53.59486,53.59486,0,0,0,2.07881-9.32208c9.22569,3.22717,18.17039,5.83455,29.68342,6.88217,4.15059.37525,13.5728.46516,20.65177.38125l.96895,3.54832a.16436.16436,0,0,0,.20688.11275l3.84973-1.39747a7.19809,7.19809,0,0,1,1.03713-.35233c.33743-.08908.51559-.09723.52553.17306a18.85986,18.85986,0,0,1-.3533,2.22952c-.40367,1.99946-.44024,2.30169-.84406,4.30108l-.42822,2.51038c-.10392.93532.40567,1.43063,1.55886.97.99587-.44873,2.28851-1.05782,2.34675-1.08563,6.59622-2.74449,13.77525-6.70255,20.35423-9.48741,3.14782-1.33268,4.67142-4.48823,5.28363-7.558a18.85019,18.85019,0,0,0-.11814-6.08353l10.40165.87173.04693-.07812,3.11994-8.32187.00014-.00014,8.83995.88353,3.11-8.3156,8.83844.88588,3.10021-8.30773,8.817.89533,3.10794-8.317v-.00014l8.82836.88981,3.10242-8.31394,8.8325.88877.00055-.00014,3.09773-8.30924,5.19379.521v-.00021l1.28154-7.62155.02953-.27243-4.48-21.26177L405.15453,135.148a.44.44,0,0,0-.15062.719l5.704,5.75025a.43992.43992,0,0,0,.45076.10778l2.5681-.8512a1.56115,1.56115,0,0,1,1.96841.87593l1.43887,3.49457s.14173.45487-.63208.45487l-.737-.03526c-.96108-.03229-2.14022-.12372-3.09731-.17347a51.917,51.917,0,0,1-5.64963-.79852c-.93169-.17782-1.84613-.42955-2.77216-.63132-.9183-.23433-1.82143-.531-2.73421-.78906l-2.69309-.95342c-.88338-.37228-1.77768-.709-2.65568-1.10434-1.75546-.79638-3.48856-1.66734-5.20262-2.631-.85758-.47979-1.71682-.95764-2.5617-1.488q-1.27705-.75963-2.53714-1.59275c-1.68521-1.08626-3.35621-2.24746-5.0388-3.41866-1.67859-1.17659-3.35732-2.39472-5.04378-3.6234-.11068-.08129-.2255-.16223-.33646-.24351,1.89747-22.29856,7.84616-31.54011,12.53222-35.35927a12.21053,12.21053,0,0,1,5.36491-2.64244,14.76779,14.76779,0,0,0-.21225,1.49732,27.97763,27.97763,0,0,0-.12393,4.21979l6.54019.49359c.16161-.54969.29989-1.09558.43334-1.638.13691-.54182.35054-1.05941.48883-1.5893.13663-.53084.37372-1.03312.55-1.54624.1674-.51483.442-1.00221.63511-1.50683.19169-.50284.47282-.99235.70288-1.48628.22136-.49566.51739-.99048.76911-1.48427.54969-.98448,1.12421-1.99995,1.74677-3.02217.63953-1.03244,1.28444-2.09793,1.93639-3.219.65995-1.12166,1.31356-2.28962,1.91541-3.52921.29616-.62828.61441-1.23151.88339-1.88981.27422-.66333.55286-1.26043.80582-2.006l.38146-1.07536.18672-.53713.13263-.45121.26511-.90251.13152-.45156.03271-.11289.09743-.37869c.02347-.10482.04844-.21274.08281-.42093.01559-.09867.03754-.23875.05506-.46053l.01215-.22433-.00111-.349a4.65913,4.65913,0,0,0-.094-.78616c-.01035-.06252-.0501-.2253-.10765-.41679l.00056.00049-.004-.01153c-.03864-.12752-.08363-.265-.13842-.40132a22.05013,22.05013,0,0,0-6.05771-9.139,33.42051,33.42051,0,0,0-3.17915-2.61532c.78747.02808,1.55466.05279,2.27119.06817,2.18122.07474,4.0014.1191,5.2748.12656,1.27533.02725,1.98966.01456,1.98966.01456l.78651-7.942s-.743-.1576-2.02016-.361c-1.27878-.227-3.10615-.499-5.30392-.7825-.29354-.04037-.60986-.07963-.91623-.11945l.73061-.16126a33.938,33.938,0,0,0-39.33666-25.76773,32.08019,32.08019,0,0,0-20.93745,13.92776,31.72473,31.72473,0,0,0-5.20427,19.09525,33.99592,33.99592,0,0,0-3.03673,2.67376l-3.16176,3.28038q-3.083,3.16656-6.27094,6.26c-4.25091,4.12629-8.62024,8.17476-13.02352,12.24392-8.79221,8.1406-17.79653,16.347-25.899,25.77407a110.94634,110.94634,0,0,0-11.03594,15.24718,79.30778,79.30778,0,0,0-7.66164,17.5468,73.69306,73.69306,0,0,0-2.08006,9.39544c-.27988,1.56093-.44024,3.20992-.60254,4.85214l-.1231,1.22979-.05838,1.1249-.11482,2.2465-.02871.56162-.01614.71826-.01643,1.19342.02278,2.39334c.02415.77215.05354,1.545.09384,2.31839-13.28008-4.40618-31.927-7.26239-47.87769-7.0836-18.57365.20536-32.01782,4.11374-38.87957,11.30119a17.18324,17.18324,0,0,0-5.00913,12.66029C175.267,193.09394,191.61707,201.54333,218.60037,201.54333Zm116.4215.07984c1.33357-11.24371-.42258-24.986-2.544-35.97844-1.15154-5.96636-.7331-9.3746-.18-11.18305a4.02836,4.02836,0,0,1,5.01576-2.41569c9.54117,2.65375,17.272,5.38582,24.10956,7.86969C360.28393,175.43839,350.52429,190.12967,335.02187,201.62317Zm48.25224,38.21355-3.221.674c-6.4549-14.68438-23.91538-27.99358-34.0798-34.8031A78.55287,78.55287,0,0,0,365.409,181.85527C388.1687,199.02828,384.40274,232.56025,383.27411,239.83672Zm62.92358-110.65187,78.36914-31.30219.80348,4.2975a1.35783,1.35783,0,0,1-1.5893,1.694.93914.93914,0,0,0-1.12586.5296l-2.8736,7.702-8.83-.88656-3.09938,8.30828v.00007l-8.82864-.88967-.00028.00021-3.10352,8.31263-8.82243-.89236-3.102,8.31387v.00007l-8.83388-.88236-3.10987,8.31539v.00014l-8.83168-.88512-2.75091,7.3336a1.3798,1.3798,0,0,1-1.428.88857l-.719-.07114c-.538-.05321-3.83372-.36324-3.99891-.878l-8.12535-19.00844Zm-17.86981,9.84207a6.76209,6.76209,0,0,1,5.75437-3.64355c2.76375-.19252,4.56862,1.15161,5.80627,3.6185.195.151,7.35127,18.23632,7.21809,17.962a5.56048,5.56048,0,0,1-.76981,6.57987c-1.22482,1.43045-4.16646,2.40721-5.98706,3.15044-.9999.40819-1.02622-.19521-1.3809-1.2155-.10931-.31446-.41679-1.17728-.8079-2.29087.12117-.21777.24469-.43438.36075-.65464a20.64895,20.64895,0,0,0,2.07233-6.77936,23.45979,23.45979,0,0,0,.1427-4.58006c-.04568-.757-.12973-1.50864-.25049-2.2652-.0581-.37862-.12848-.75649-.2117-1.1456l-.1347-.59219c-.05782-.227-.08956-.36586-.19845-.72758l-.00787-.02594a4.53133,4.53133,0,0,0-1.50787-2.23242,19.53833,19.53833,0,0,0-2.64313-1.83329,13.68907,13.68907,0,0,0-1.51257-.76643,15.57889,15.57889,0,0,0-1.63677-.62021,15.01019,15.01019,0,0,0-1.75035-.41706,13.67432,13.67432,0,0,0-1.77989-.20108l-.27822-.021C428.57616,140.214,428.13059,139.39326,428.32788,139.02692ZM352.74953,39.04074a22.36408,22.36408,0,0,1,5.81331-5.98575l.71874-.13138a10.34243,10.34243,0,0,1,1.27961-.145,14.3056,14.3056,0,0,1,1.52319-.1013c.53478.01173,1.11138-.00793,1.702.01946.57977.06693,1.19515.103,1.81232.1888.60116.13179,1.24373.20232,1.853.37841a17.44334,17.44334,0,0,1,1.82364.56183,14.95444,14.95444,0,0,1,1.72675.71516c.56639.23744,1.06018.55941,1.56515.81908.46743.3072.94232.57156,1.33136.87117a17.20148,17.20148,0,0,1,1.84379,1.4878c.18507.17734.33039.31665.42948.41167a1.76474,1.76474,0,0,1,.155.16506l3.85152-2.68163c-.00841-.00952-.02456-.05727-.16215-.26981-.1336-.21453-.30473-.46715-.51864-.7776a22.2088,22.2088,0,0,0-1.94839-2.391c-.42024-.48165-.93031-.93735-1.45323-1.45191-.55769-.4646-1.12117-1.00463-1.77478-1.46585-.14794-.1133-.30637-.22288-.459-.33481a24.35756,24.35756,0,0,1,20.95787,15.90382c-1.8954-.14415-3.84131-.27077-5.79315-.4045-2.95282-.17865-5.90964-.36634-8.6916-.43693-2.78224-.08474-5.38327-.13635-7.62521-.14739-1.13553.013-2.17625.025-3.09883.0356-.93459.00456-1.68163.044-2.3315.05817-1.28086.05162-2.01271.08115-2.01271.08115l.00055.038c-.38946.01146-.77892.00635-1.16824.03174a47.43559,47.43559,0,0,0-4.99036.53437,46.80449,46.80449,0,0,0-9.65324,2.69447l-.02484.01069A22.24258,22.24258,0,0,1,352.74953,39.04074ZM276.1738,156.21127l.00483-.40623.02815-.56162.11289-2.24656.05728-1.12152.10833-1.00766c.13925-1.342.25766-2.68019.50911-4.07344a63.98458,63.98458,0,0,1,1.797-8.16227,69.56819,69.56819,0,0,1,6.69766-15.35545,101.33579,101.33579,0,0,1,10.038-13.87268c7.539-8.79683,16.28768-16.82185,25.088-24.97418,4.40369-4.07669,8.83223-8.18594,13.18651-12.41968q3.26-3.18445,6.45877-6.45849l.5156-.53616c.14684.19659.30472.40085.47958.61269a27.5617,27.5617,0,0,0,2.83813,2.99035,26.84172,26.84172,0,0,0,4.18357,3.18012,31.75362,31.75362,0,0,0,5.39334,2.684,28.97366,28.97366,0,0,0,3.02942,1.032,31.18463,31.18463,0,0,0,3.18066.80665,53.26526,53.26526,0,0,0,6.63625.96523c2.2469.15547,4.51313.23717,6.75714.17644q2.061-.04243,4.08821-.18755L377.31,73.09659c-1.30887-.08508-2.62049-.20135-3.92577-.35358-2.09882-.228-4.1648-.59033-6.16536-1.002a47.2301,47.2301,0,0,1-5.68413-1.63146,24.74929,24.74929,0,0,1-2.5566-1.03092,22.32689,22.32689,0,0,1-2.31191-1.15582,23.70446,23.70446,0,0,1-3.77313-2.56411,19.98906,19.98906,0,0,1-4.1982-4.85222c-.398-.64505-.61938-1.20847-.817-1.55735l-.05851-.11338.73958-.43389.86642-.4762A37.18035,37.18035,0,0,1,360.67491,54.114a37.82988,37.82988,0,0,1,3.95089-.4243q.99241-.06831,1.98966-.05555l.4982-.0031c.05355-.00132.23186.00027.183-.00345l.281.00917,1.12421.03644a58.79754,58.79754,0,0,1,8.19008.97274,55.51831,55.51831,0,0,1,15.59254,5.30579,29.73488,29.73488,0,0,1,6.31938,4.40955A13.83747,13.83747,0,0,1,401.98011,68.56l-.06252.21825-.12945.45212-.127.34957-.24786.69743c-.13732.44755-.39222.98841-.58446,1.48889-.18769.51063-.44605,1.02347-.66907,1.53651-.21681.51084-.503,1.03506-.74827,1.554-.24248.52257-.52954,1.06673-.792,1.59965-.55535,1.0775-1.13346,2.20192-1.70012,3.3687-.11772.24531-.23558.49835-.35413.74621-1.55355-.19983-7.62962-.57556-14.14511,4.4658-8.344,6.45683-13.68542,18.83814-15.93439,36.81449-.362-.24834-.71323-.50242-1.07729-.74945-1.77975-1.20329-3.60684-2.35034-5.448-3.48518l-2.8017-1.65161-2.86076-1.56584c-1.935-1.00083-3.89086-1.96047-5.8841-2.84675-2.00471-.86083-4.02528-1.68218-6.08519-2.39568-1.01877-.38353-2.06487-.69322-3.10738-1.0058-1.037-.32-2.07743-.63381-3.15845-.89423-1.05783-.257-2.159-.58646-3.17321-.77746l-3.09524-.605-1.29355,4.79943c1.98607.69432,4.01037,1.35814,5.82228,2.09558.92948.34081,1.85951.74545,2.78844,1.15658.93114.39794,1.85552.80658,2.76237,1.25656,1.83633.84178,3.62478,1.78361,5.39335,2.7527,1.76953.96944,3.50264,2.00657,5.21462,3.07889l2.54363,1.65582,2.5105,1.72054,2.47641,1.78838,2.45571,1.83888q2.44916,1.86559,4.88272,3.8l4.90659,3.90728c3.30888,2.60676,6.6702,5.27045,10.28366,7.73644q1.34082.93766,2.74511,1.8246c.91748.608,1.87553,1.17742,2.83427,1.74649,1.91458,1.14126,3.92619,2.168,5.97657,3.13485,1.02788.47854,2.09068.90147,3.13623,1.35158,1.07011.40312,2.15044.78561,3.23338,1.15768,1.10282.32,2.19654.67258,3.30943.95757,1.12118.25138,2.23283.55631,3.3656.74669a61.67467,61.67467,0,0,0,6.81786.84523c1.13788.04195,2.2781.12179,3.41308.12545l1.42-.03513a8.63416,8.63416,0,0,0,3.73422-.95246l.80527-.41395a9.67744,9.67744,0,0,0,1.5225-1.05569c.19846-.2066.40934-.41037.62421-.60793a12.095,12.095,0,0,1,1.34365-1.06342,7.49077,7.49077,0,0,1,2.65389-1.2026,4.52115,4.52115,0,0,1,2.32723.09647,6.02185,6.02185,0,0,1,.60005.23275,4.608,4.608,0,0,1,.62228.31694c.00994.00538.01988.01345.02981.0189.05134.364.09978.73138.121,1.10151a13.889,13.889,0,0,1-.08183,2.727,10.82057,10.82057,0,0,1-1.74981,4.75057,9.28732,9.28732,0,0,1-.7629,1.00229,10.19089,10.19089,0,0,1-.89636.92693,13.29065,13.29065,0,0,1-1.02319.8524l-.02071.0147c-.24151.1723-.48634.34371-.73834.50959-.12752.08391-.25283.16961-.389.24669a14.29155,14.29155,0,0,1-1.24966.69694c-.41955.23275-.8983.40692-1.342.619l-1.15954.43983c-.20991-1.0501-.39415-2.224-.55438-3.43219-6.791.07446-15.778-.01456-19.42364-.3453-13.304-1.21115-22.73486-4.65031-34.6742-9.00363-7.59043-2.769-16.19439-5.90563-27.2295-8.976a13.49165,13.49165,0,0,0-16.74312,8.84134c-1.26856,4.14354-1.29175,9.45961-.06734,15.80245,3.71986,19.2699,3.79535,34.42316.22108,41.64615a129.01512,129.01512,0,0,1-36.06945,12.95452c-.01822.00379-.0363.00228-.05465.00628-.4615.10081-.92245.18307-1.38367.27443q-.97835.18951-1.96551.36482-3.28073.55479-6.53605.78527a31.73839,31.73839,0,0,0,3.90479-5.276,34.67635,34.67635,0,0,0,3.76017-9.748,40.56082,40.56082,0,0,0-.90382-20.20429c-.228-.81107-.492-1.60868-.784-2.39588-.26718-.79734-.58957-1.57081-.91292-2.34393-.30569-.78181-.68121-1.529-1.03658-2.2863l-.96164-2.009c-.495-1.13533-1.02167-2.36518-1.447-3.6539-.44439-1.27-.81825-2.57288-1.14478-3.89334a54.09684,54.09684,0,0,1-1.33467-8.13246c-.13621-1.3807-.19473-2.77789-.241-4.17619l-.02167-2.105Zm-89.07455,16.93557c4.79163-5.02018,16.3324-7.99673,31.66342-8.16676,16.82978-.19065,37.5173,3.35456,49.37052,8.35182.05423.23089.09964.46281.15663.69329.39692,1.58971.85565,3.17156,1.4041,4.7318.22109.658.47419,1.31273.73489,1.96972-10.21024,5.24451-31.48235,10.46817-50.48369,10.678-17.23773.17113-34.73271-3.74167-35.05952-12.95286A7.09578,7.09578,0,0,1,187.09925,173.14684Z"/><path d="M271.39279,392.07733c-1.03588.32087-2.04748.686-3.04362,1.09564a.96868.96868,0,0,1-1.30611-1.09661c.7135-3.67887,1.2567-7.575,1.71848-11.7217,3.87884-34.83214.15015-44.02174-3.53135-48.136a11.015,11.015,0,0,0-8.90109-3.58848,12.62453,12.62453,0,0,0-9.62508,4.47683c-6.62825,7.4291-8.41241,23.62315-5.4549,49.50694,1.37028,11.98819,4.19074,22.05773,8.35968,30.04286a2.455,2.455,0,0,1,.21847,1.7743,12.63946,12.63946,0,0,1-3.27285,6.009A9.05024,9.05024,0,0,1,240.28,422.8626c-7.928-.5581-10.31471-10.82078-10.41242-11.2575-2.8943-12.92106-10.0064-20.63591-19.02632-20.63591-6.2098,0-11.6106,4.65273-15.31652,12.29616a.76043.76043,0,0,1-1.36311,0c-3.70606-7.64343-9.10686-12.29616-15.31694-12.29616-4.06184,0-7.77646,1.99346-10.8982,5.50948v-.13214a2.39006,2.39006,0,0,0-2.39-2.39l-5.21863.00014a2.0695,2.0695,0,0,0-2.07481,2.01561c-.35109,17.33054-5.19738,26.8782-8.58519,26.8782-4.07455,0-10.17311-10.85115-10.53083-27.365a1.5504,1.5504,0,0,0-1.54224-1.52892l-6.6448-.00007a1.522,1.522,0,0,0-1.51271,1.49539c-.438,16.22227-7.9487,27.39856-14.71012,27.39856-6.76666,0-14.28367-11.19334-14.71108-27.43569a1.48347,1.48347,0,0,0-1.47489-1.4584l-6.98016.00111a1.26718,1.26718,0,0,0-1.22386,1.2458l-.00414.59143c-.06169,11.88379-2.60917,20.38686-7.37665,24.6077a11.26185,11.26185,0,0,1-8.17518,2.94819l-.22578-.02967c-.43941-.05417-6.67792-.95812-12.64524-8.79987a1.7722,1.7722,0,0,1-.03658-2.06,64.14332,64.14332,0,0,0,10.73867-28.2146c2.80184-23.584,1.32571-37.6994-4.64548-44.42211a13.31734,13.31734,0,0,0-10.69464-4.423,12.96489,12.96489,0,0,0-9.90152,4.59953c-6.40453,7.23223-8.09692,22.39909-5.17363,46.366,1.31038,10.74867,3.81122,19.02052,6.85333,25.38578a1.67655,1.67655,0,0,1-.22744,1.81329,91.80051,91.80051,0,0,1-21.17758,17.995,2.381,2.381,0,0,0-.859,3.1501l1.18673,2.24532L29.084,439.0481a2.3895,2.3895,0,0,0,3.34186.93783,100.07341,100.07341,0,0,0,21.22837-17.18709,1.77732,1.77732,0,0,1,2.62684.00746c7.69587,8.61162,15.7409,9.94022,17.15934,10.11142a20.65229,20.65229,0,0,0,15.66969-5.05254,25.52845,25.52845,0,0,0,5.87168-7.47057,1.04807,1.04807,0,0,1,1.82723-.03995c4.4237,7.5206,10.77013,12.15863,17.92818,12.15863,7.184,0,13.54782-4.67633,17.97318-12.24613a1.11974,1.11974,0,0,1,1.97959.07763c3.64037,7.565,8.91958,12.1685,14.98793,12.1685a12.319,12.319,0,0,0,8.60589-3.536,2.38995,2.38995,0,0,0,2.39,2.39009h5.60947a1.77763,1.77763,0,0,0,1.66147-1.77071l.004-.63022c.13428-17.31674,6.49934-28.33446,10.896-28.33446,4.34132,0,10.60135,10.74108,10.88813,27.6812l.00732.3366a.89614.89614,0,0,0,.85758.87484h8.54434c.75808,0,.80321-.65713.80762-.98234.23393-17.07233,6.53081-27.9103,10.89158-27.9103,4.04957,0,7.81677,5.136,9.59679,13.08411,2.9266,13.076,12.1527,18.29163,19.07545,18.77825.13884.01214.47861.03643.97806.03643a18.71356,18.71356,0,0,0,12.48626-4.86912c.35855-.32805.70081-.67493,1.02692-1.03306a1.281,1.281,0,0,1,1.89761-.03195,21.20187,21.20187,0,0,0,8.58919,5.3585,28.50478,28.50478,0,0,0,9.18553,1.4653,34.04,34.04,0,0,0,10.04766-1.55424c14.3709-4.45262,22.91952-16.68074,19.46242-27.83716C299.72884,392.87267,285.76507,387.622,271.39279,392.07733ZM57.47261,400.8549a1.32632,1.32632,0,0,1-2.435-.20059,84.50613,84.50613,0,0,1-3.23932-15.45743c-3.445-28.24966.82225-36.53876,2.81674-38.79139a3.43608,3.43608,0,0,1,2.66714-1.3413c1.54886,0,2.47365.05527,3.47048,1.17686,1.76457,1.987,5.51893,9.55629,2.27423,36.865A51.88979,51.88979,0,0,1,57.47261,400.8549ZM259.158,379.28434a103.39535,103.39535,0,0,1-3.0617,17.11588,1.28028,1.28028,0,0,1-2.46979-.01387,98.6388,98.6388,0,0,1-2.77644-14.86966c-3.52445-30.83654.96854-39.62716,3.064-41.97543a3.04949,3.04949,0,0,1,2.415-1.24829c1.36973,0,1.43983.07819,1.70067.36938C259.20863,339.98074,262.77475,346.80454,259.158,379.28434Zm21.7056,43.35317a22.01319,22.01319,0,0,1-13.25745.1712c-1.94646-.66326-5.37264-2.29169-6.44552-5.75486-1.07314-3.46172.83095-6.74285,2.06184-8.39019a22.0246,22.0246,0,0,1,11.031-7.35761,24.40281,24.40281,0,0,1,7.18717-1.11082c6.10382,0,11.21563,2.49794,12.51649,6.69441C295.7487,412.67141,289.75322,419.88212,280.86358,422.63751Z"/><path d="M688.17432,413.1178l-4.9716-1.11338a2.3065,2.3065,0,0,0-2.6837,1.46351c-1.10323,3.10462-3.93736,8.87349-9.86535,9.32588l-.11731.0051a9.11554,9.11554,0,0,1-6.02376-2.33709c-2.14741-1.9651-3.50209-5.24133-4.02017-9.561a2.5002,2.5002,0,0,1,.30058-1.48689c4.91749-9.0291,6.90536-19.59222,8.23548-32.36319,3.90976-37.531.0679-47.16274-3.71655-51.3619a10.81794,10.81794,0,0,0-8.71934-3.51707,12.3093,12.3093,0,0,0-9.34589,4.35284c-6.854,7.6259-8.73148,24.94292-5.73726,52.94182.35109,3.28707.80872,6.42268,1.35385,9.42987a1.74964,1.74964,0,0,1-2.06625,2.01291,30.29061,30.29061,0,0,0-6.17088-.44949v-.00538c-.13442,0-.25421.01518-.38753.01649-.39.01518-.77726.02056-1.17141.05023a27.262,27.262,0,0,0-12.23688,3.22049,30.15714,30.15714,0,0,0-11.44223,9.06766,21.57825,21.57825,0,0,0-3.84946,8.19194,16.56113,16.56113,0,0,1-2.08046,5.33277c-2.7091,4.26251-5.38342,6.46139-10.31388,6.46139a5.321,5.321,0,0,1-4.31855-1.77672c-3.56557-3.99022-3.464-13.48047-3.12891-16.798.93431-4.56585-.62932-7.53157-2.12587-9.22741-4.69779-5.32476-14.23662-4.74375-22.35065-3.98215-.09882-.12531-.2026-.25069-.31-.37338a9.80389,9.80389,0,0,0-7.70608-3.26768,7.19834,7.19834,0,0,0-5.49879,2.2,6.58713,6.58713,0,0,0-1.71323,5.03763c.23186,3.09241,2.70358,5.47843,6.35747,6.19966.20646.06514.419.12055.6394.16692a1.071,1.071,0,0,1,.85785,1.04127c-.03726,8.2617-1.88008,14.36151-5.37775,17.7278a10.89753,10.89753,0,0,1-7.774,3.07758l-.17941-.01484c-10.15214-.67265-10.66635-10.32872-10.66635-12.25779v-16.65a2.321,2.321,0,0,0-2.321-2.321h-5.021a2.32073,2.32073,0,0,0-2.32074,2.32074,16.96,16.96,0,0,0-3.73615-1.97455,33.06975,33.06975,0,0,0-34.93172,10.63468c-.4201.49814-.83136.98586-1.25146,1.484-1.86366,1.92383-4.01892,4.11622-6.33014,6.46711q-1.61883,1.64616-3.30957,3.368a2.21374,2.21374,0,0,1-3.794-1.549V394.93147a1.77846,1.77846,0,0,0-1.77837-1.77837h-6.70291c-1.36448,0-1.25932,1.51733-1.25932,1.51733-.252,16.57295-7.87307,28.04664-14.72447,28.04664-6.81883,0-14.65685-11.36294-14.72282-27.81065-.00027-.06956-.00565-.06438-.00565-.13407,0-1.69336-1.829-1.61925-1.829-1.61925h-6.35112a2.311,2.311,0,0,0-2.3166,2.22793c-.45695,15.35117-5.62037,26.6647-12.36772,26.6647-9.31636,0-11.80878-14.60468-12.45521-21.1252a10.92271,10.92271,0,0,0-4.56654-9.26647c-3.62712-2.54756-8.66593-2.75905-13.6941-1.953a2.22223,2.22223,0,0,1-2.09013-.83315q-.10765-.13715-.22178-.26988a7.38116,7.38116,0,0,0-5.6753-2.5882c-4.78211,0-7.69187,1.69715-9.15723,5.34091a8.04664,8.04664,0,0,0,1.73351,8.22582,7.59186,7.59186,0,0,0,3.27065,2.05321,1.38913,1.38913,0,0,1,.90437,1.86994c-8.42676,19.625-27.92755,19.66115-28.89747,19.6272-10.88316,0-14.76463-5.75148-15.00159-8.66289.04775-.36158.25034-1.24021,1.03478-1.0599,5.2098,3.06577,10.08341,3.211,13.38925,3.30742l.71985.02022c8.65309,0,16.57419-5.57952,17.65589-12.43844A12.10353,12.10353,0,0,0,347.378,393.238l-1.345-1.02319-.17885-.13614c-8.30339-5.66854-21.08761-3.52245-29.45019,5.26272a24.60551,24.60551,0,0,0-7.165,16.83579c0,7.7283,7.65972,18.61243,24.58776,18.61112.17665.004.35523.00538.53713.00538,10.82754,0,32.27769-6.50431,39.47494-31.48629l.13552-.62283c.04306-.28843.09564-.68341.14215-1.15795,4.08793-.8493,6.99424-.72931,8.08422.035.11317.07949.459.32218.459,1.615l.02222.461c.86613,9.04131,4.75257,30.07088,22.09381,30.07088,6.65612,0,12.21052-3.94178,16.08109-10.80815a2.3206,2.3206,0,0,1,3.99409.00027c4.40134,7.11914,10.57789,11.47915,17.51775,11.47915,5.44965,0,10.42691-2.6917,14.44556-7.29364a.20185.20185,0,0,1,.3573.1289l-.00014,1.751a2.32918,2.32918,0,0,1-.62131,1.57846,167.74326,167.74326,0,0,0-12.04739,14.17886c-17.222,23.74853-15.50395,37.88958-11.02973,45.56937a15.6181,15.6181,0,0,0,13.53567,8.024,8.574,8.574,0,0,0,.926-.04989c11.97067-1.34537,19.52646-9.151,18.89908-49.06255v-14.571a2.32217,2.32217,0,0,1,.637-1.6c2.692-2.83654,5.44634-5.67744,8.0972-8.38929a2.3357,2.3357,0,0,1,3.6953.42886,19.88777,19.88777,0,0,0,11.14234,8.8109,28.50251,28.50251,0,0,0,9.18566,1.46537,34.04,34.04,0,0,0,10.04753-1.55431,32.94687,32.94687,0,0,0,12.23633-6.82739,2.29594,2.29594,0,0,1,3.325.20639,19.97013,19.97013,0,0,0,14.60992,7.26943c.22109.01883.62684.04582,1.1797.04582a20.58375,20.58375,0,0,0,13.96639-5.57959c5.52584-5.17226,8.39488-13.30148,8.54835-24.196a2.40741,2.40741,0,0,1,2.26595-2.349c5.28266-.31852,8.52143-.14042,9.89116.56018.02236.01131.08791.03609.10889.04768a.80682.80682,0,0,1,.48358.84433c-.00635.17058-.02015.17741-.06128.56521l-.07176.51477c-.19349,1.66486-1.68287,16.4947,5.48112,24.53987a15.00033,15.00033,0,0,0,11.54215,5.02148,19.3658,19.3658,0,0,0,14.03622-5.45593,2.266,2.266,0,0,1,3.12464.0149,21.37149,21.37149,0,0,0,8.094,4.86671,28.5011,28.5011,0,0,0,9.18553,1.46537,34.04175,34.04175,0,0,0,10.0478-1.55431,32.41674,32.41674,0,0,0,13.81183-8.28958,2.15844,2.15844,0,0,1,3.363.30341,19.30232,19.30232,0,0,0,3.18136,3.78162,18.72,18.72,0,0,0,12.46376,4.8732c.47392,0,.79217-.02291.91279-.03375,6.565-.46219,15.07349-5.06682,18.532-16.393A2.29339,2.29339,0,0,0,688.17432,413.1178ZM324.515,403.81345a5.13481,5.13481,0,0,1,1.53051-2.09186c5.07234-3.635,11.40111-4.28949,15.01277-1.15968l.25408.21709a2.45986,2.45986,0,0,1,.8682,2.00719c-.2313,1.464-3.53935,4.25581-8.04517,4.28279l-.50359-.01621c-2.62767-.0768-5.49354-.18162-8.52226-1.86808A1.39746,1.39746,0,0,1,324.515,403.81345Zm128.93882,78.7686a6.59289,6.59289,0,0,1-11.84191.46737q-.09108-.17183-.17817-.351c-2.09344-4.31516-3.46247-14.509,10.89158-34.3024.50539-.69694,1.78955-2.36615,2.39486-3.1345a1.22508,1.22508,0,0,1,2.0196-.14636,4.09307,4.09307,0,0,1,.43169,2.16465C457.49032,467.56921,455.7183,477.58569,453.45387,482.58205Zm64.35554-67.37357a23.3693,23.3693,0,0,1-24.2891,7.52881c-1.9466-.66326-5.37265-2.29169-6.4458-5.75479-.75035-2.42176-.126-5.0929,1.49683-7.58346.06832-.10482.19322-.2609.26526-.363a18.70863,18.70863,0,0,1,3.25974-3.46579c.07673-.07011.13911-.14457.22026-.20964a23.89221,23.89221,0,0,1,7.85086-4.126,24.495,24.495,0,0,1,7.19186-1.10944,18.88562,18.88562,0,0,1,6.06614.93956c1.94729.66188,5.37347,2.29168,6.44579,5.75347C520.94412,410.28,519.04017,413.56115,517.80941,415.20848Zm116.96194,7.35761a22.01364,22.01364,0,0,1-13.25759.1712c-1.94646-.66326-5.37264-2.29169-6.44552-5.75479a6.765,6.765,0,0,1-.2255-1.11365l-.005-.07066c-.01573-.15561,0-.85586,0-.85586.48137-5.84863,5.11844-9.70692,9.851-12.318l.33453-.18127a25.06268,25.06268,0,0,1,3.13775-1.20847,24.40511,24.40511,0,0,1,7.18717-1.11082c5.40688,0,10.02765,1.964,11.91836,5.32814a.69057.69057,0,0,1,.04582.09915c.21308.57018.419,1.15182.64174,1.70578a.61821.61821,0,0,1,.03091.09854C649.26521,413.04,643.38939,419.89481,634.77135,422.56609Zm21.80138-29.01215a1.491,1.491,0,0,1-2.88768-.0258,114.40135,114.40135,0,0,1-2.56805-15.089c-3.602-33.689,1.11952-43.01077,3.31605-45.45613a2.76272,2.76272,0,0,1,2.15955-1.1485c1.25035,0,1.30638.062,1.54155.32349,1.2313,1.36559,4.96359,8.56953,1.284,43.89237A122.76134,122.76134,0,0,1,656.57273,393.55394Z"/></svg>