<svg id="Layer_1" data-name="Layer 1" xmlns="http://www.w3.org/2000/svg" viewBox="0 0 360 360"><defs><style>.cls-1{fill:#66459a;}</style></defs><title>lumberyard-icon-color</title><path class="cls-1" d="M205.45855,103.16857c-.12175-2.05363-2.8158-3.62791-6.0173-3.51617s-5.69828,1.867-5.57652,3.92067,2.81567,3.62791,6.01731,3.51617S205.58031,105.2222,205.45855,103.16857Z"/><path class="cls-1" d="M47.69937,236.567c.46874,0,.94393-.00215,1.41913-.00752,18.41046-.20374,40.45112-5.08245,52.91765-11.21909.1106.32972.23343.65614.327.99056a30.092,30.092,0,0,1,.74894,14.96009,24.37033,24.37033,0,0,1-2.59381,6.80226,21.03671,21.03671,0,0,1-4.54241,5.44515,21.26994,21.26994,0,0,1-6.15209,3.53841,26.63966,26.63966,0,0,1-7.308,1.44768l.68618,9.30293.1626-.01176c19.12218,11.29737,23.12288,23.71848,25.49588,24.89558,3.14063,1.558,14.964-2.70521,12.82925-12.46008-1.25491-5.73483-7.93111-9.9111-14.22593-12.64111,1.15721-.11268,2.31643-.25889,3.47713-.4256a5.01042,5.01042,0,0,0,.7191-.06115c.25386-.04327.50207-.09622.75526-.1407.24055-.04233.47774-.09044.71762-.13378,1.14619-.19795,2.29291-.40719,3.44031-.65762.02217-.00484.04112-.01553.06316-.02063,17.94226-3.691,33.96575-10.45739,46.87992-19.29635,13.2609,8.42,27.67994,20.46316,32.49032,31.508-.44052,1.85118-1.98947,3.80133-3.778,3.99471l-.00847-.00194,4.85863,9.0402c15.42734-7.79834,26.48684-3.46449,34.05256.03629l2.61544,1.33835c.39886.224.04085.00578.39886.224l1.28581-.44576c2.20341-1.38271,7.86163-6.65907,6.44909-12.02749-1.74232-6.62192-6.09122-9.14563-10.26917-8.3891-4.17809.75713-14.76778,7.40848-13.96925,1.018a.24245.24245,0,0,0-.05174-.06874,93.9632,93.9632,0,0,0,.05362-23.28541c-2.3257-18.26936-10.37426-32.42957-23.3387-41.26114a52.18966,52.18966,0,0,0,2.02427-9.0775c8.98363,3.1425,17.69365,5.68147,28.9046,6.7016,4.04169.3654,13.21668.45295,20.10992.37125l.94354,3.45522a.16.16,0,0,0,.20144.10979l3.74872-1.3608a7.0085,7.0085,0,0,1,1.00992-.34309c.32858-.08675.50207-.09467.51175.16852a18.36586,18.36586,0,0,1-.344,2.171c-.39309,1.947-.4287,2.24131-.82191,4.18824l-.417,2.44451c-.1012.91078.395,1.39309,1.518.94451.96973-.437,2.22846-1.03006,2.28517-1.05714,6.42316-2.67249,13.41383-6.5267,19.82019-9.2385,3.06523-1.2977,4.54886-4.37046,5.145-7.35969a18.35558,18.35558,0,0,0-.115-5.92391l10.12874.84885.04569-.07606,3.03809-8.10353.00013-.00013,8.608.86034,3.02841-8.09741,8.60654.86263,3.01887-8.08976,8.5857.87184,3.0264-8.09883v-.00013l8.59673.86646,3.021-8.09581,8.60076.86546.00054-.00014,3.01645-8.09123,5.05752.50731v-.0002l1.24791-7.42159.02876-.26528-4.36247-20.70391L229.35883,171.91378a.42841.42841,0,0,0-.14667.70012l5.55435,5.59938a.42841.42841,0,0,0,.43893.105l2.50073-.82887a1.52019,1.52019,0,0,1,1.91676.85295l1.40111,3.40288s.138.44294-.61549.44294l-.71762-.03434c-.93587-.03145-2.08408-.12048-3.01605-.16892a50.55418,50.55418,0,0,1-5.50139-.77757c-.90725-.17315-1.7977-.41828-2.69943-.61475-.89421-.22819-1.77364-.51712-2.66248-.76836l-2.62242-.92841c-.86021-.36251-1.731-.69034-2.586-1.07536-1.7094-.77548-3.397-1.6236-5.06612-2.562-.83508-.4672-1.67177-.93251-2.49449-1.449q-1.24354-.7397-2.47056-1.551c-1.641-1.05776-3.26816-2.18849-4.9066-3.329-1.63455-1.14572-3.26923-2.33188-4.91144-3.52833-.10778-.07916-.21959-.158-.32764-.23713,1.84769-21.71349,7.6403-30.71257,12.20341-34.43153a11.89029,11.89029,0,0,1,5.22415-2.57311,14.37889,14.37889,0,0,0-.20668,1.458,27.24276,27.24276,0,0,0-.12068,4.10909l6.36859.48063c.15737-.53526.292-1.06683.422-1.595.13331-.5276.34134-1.03162.476-1.5476.133-.51692.36392-1.006.53554-1.50567.163-.50133.43044-.97592.61844-1.4673.18667-.48964.46041-.96631.68444-1.44728.21555-.48265.50381-.9645.74894-1.44533.53526-.95865,1.09471-1.94747,1.70093-2.94287.62275-1.00535,1.25074-2.04289,1.88558-3.13458.64264-1.09223,1.2791-2.22954,1.86516-3.43661.28839-.61179.59829-1.1992.86021-1.84022.267-.64593.53835-1.22736.78468-1.95338l.37145-1.04715.18182-.523.12915-.43938.25816-.87882.12807-.43971.03185-.10993.09488-.36876c.02284-.10207.04716-.20716.08063-.40988.01518-.09609.03655-.23249.05362-.44845l.01182-.21845-.00107-.33986a4.5371,4.5371,0,0,0-.09152-.76553c-.01008-.06088-.04878-.21939-.10482-.40585l.00054.00047-.0039-.01122c-.03763-.12418-.08144-.258-.13479-.3908a21.47164,21.47164,0,0,0-5.89878-8.89917,32.54262,32.54262,0,0,0-3.09573-2.5467c.76681.02735,1.51386.05141,2.2116.06639,2.124.07277,3.89641.116,5.1364.12323,1.24187.02654,1.93746.01418,1.93746.01418l.76587-7.73363s-.72354-.15347-1.96716-.35149c-1.24523-.221-3.02464-.48594-5.16475-.762-.28584-.03931-.59386-.07754-.8922-.11631l.71145-.157a33.04752,33.04752,0,0,0-38.30457-25.09165,31.23847,31.23847,0,0,0-20.3881,13.56233,30.89231,30.89231,0,0,0-5.06773,18.59424,33.1044,33.1044,0,0,0-2.95705,2.60361l-3.0788,3.19431q-3.00215,3.08347-6.10641,6.09572c-4.13938,4.018-8.39407,7.96027-12.68182,11.92267-8.56152,7.927-17.32959,15.91806-25.21945,25.09783a108.03573,108.03573,0,0,0-10.74638,14.84713A77.22694,77.22694,0,0,0,97.2161,172.645a71.75961,71.75961,0,0,0-2.02548,9.14893c-.27254,1.52-.42869,3.1257-.58673,4.72484l-.11988,1.19752-.05684,1.09539-.11181,2.18755-.028.54689-.01573.69941-.016,1.16211.02217,2.33054c.02352.7519.05215,1.50446.09139,2.25757-12.93165-4.29057-31.08933-7.07184-46.6215-6.89775-18.08633.2-31.17776,4.00581-37.85947,11.00468a16.73237,16.73237,0,0,0-4.87771,12.32811C5.503,228.33934,21.42405,236.567,47.69937,236.567Zm113.3669.07774c1.29858-10.9487-.4115-24.33047-2.47729-35.03446-1.12133-5.80981-.71387-9.12863-.17524-10.88963a3.92266,3.92266,0,0,1,4.88415-2.35231c9.29084,2.58412,16.81879,5.24451,23.477,7.66321C185.66552,211.147,176.16194,225.45284,161.06627,236.64478Zm46.98622,37.21093-3.13646.65627c-6.28554-14.2991-23.2879-27.2591-33.18563-33.88995a76.49212,76.49212,0,0,0,18.92571-23.22649C212.81866,234.118,209.15151,266.77016,208.05249,273.85571Zm61.27263-107.74865,76.31293-30.4809.7824,4.18474a1.32219,1.32219,0,0,1-1.5476,1.64953.9145.9145,0,0,0-1.09632.51571l-2.79821,7.49993-8.59834-.8633-3.01806,8.09029v.00007l-8.597-.86632-.00027.0002-3.02209,8.09452-8.591-.86894-3.02061,8.09573v.00007l-8.60211-.8592-3.02827,8.09721v.00013l-8.6-.86189-2.67873,7.14119a1.34361,1.34361,0,0,1-1.3905.86525l-.70016-.06928c-.52384-.0518-3.73313-.3537-3.894-.855l-7.91216-18.50971Zm-17.401,9.58384a6.58468,6.58468,0,0,1,5.6034-3.54795c2.69123-.18747,4.44874,1.12139,5.65393,3.52355.18988.14709,7.15838,17.75785,7.0287,17.49075a5.4146,5.4146,0,0,1-.74961,6.40724c-1.19269,1.39292-4.05715,2.344-5.83,3.06778-.97368.39748-.9993-.19009-1.34468-1.18361-.10643-.3062-.40585-1.14639-.7867-2.23076.118-.21206.23827-.423.35129-.63746a20.10751,20.10751,0,0,0,2.01795-6.60149,22.84422,22.84422,0,0,0,.139-4.4599c-.04449-.73718-.12633-1.469-.24392-2.20576-.05657-.36869-.12511-.73664-.20614-1.11554l-.13117-.57666c-.0563-.221-.08721-.35626-.19324-.70848l-.00766-.02527a4.41244,4.41244,0,0,0-1.46832-2.17384,19.02632,19.02632,0,0,0-2.57377-1.7852,13.333,13.333,0,0,0-1.47288-.74631,15.17131,15.17131,0,0,0-1.59383-.60394,14.61618,14.61618,0,0,0-1.70443-.40612,13.31611,13.31611,0,0,0-1.73319-.1958l-.27092-.02047C252.16593,176.84681,251.73205,176.04762,251.92416,175.6909ZM178.3288,78.32809a21.77747,21.77747,0,0,1,5.66078-5.82869l.69988-.12794a10.07413,10.07413,0,0,1,1.246-.14124,13.93217,13.93217,0,0,1,1.48323-.09864c.52075.01143,1.08222-.00772,1.65739.019.56456.06518,1.16379.10032,1.76477.18384.58539.12834,1.21109.197,1.80441.36849a16.98674,16.98674,0,0,1,1.77579.54709,14.56157,14.56157,0,0,1,1.68145.69639c.55152.23122,1.03236.54474,1.52408.79759.45517.29914.91759.55656,1.29643.84832a16.75143,16.75143,0,0,1,1.79541,1.44875c.18021.17269.32172.30836.41821.40088a1.718,1.718,0,0,1,.15092.16073l3.75047-2.61127c-.0082-.00928-.02392-.05577-.15791-.26273-.13008-.20891-.29672-.4549-.505-.7572a21.62593,21.62593,0,0,0-1.89728-2.32826c-.4092-.469-.9059-.91275-1.41509-1.41381-.54306-.45242-1.09176-.97827-1.72822-1.42739-.14406-.11034-.29833-.217-.447-.326a23.71851,23.71851,0,0,1,20.408,15.48655c-1.84567-.14037-3.74053-.26367-5.64116-.39389-2.87534-.174-5.75458-.35673-8.46355-.42547-2.70924-.08251-5.242-.13277-7.42515-.14353-1.10573.0127-2.11915.02433-3.01752.03468-.91007.00443-1.63751.0428-2.27033.05664-1.24725.05026-1.9599.079-1.9599.079l.00054.037c-.37924.01115-.75848.00618-1.13759.03091a46.18923,46.18923,0,0,0-4.85943.52034,45.57679,45.57679,0,0,0-9.4,2.62377l-.02419.01042A21.65913,21.65913,0,0,1,178.3288,78.32809ZM103.76222,192.42438l.0047-.39557.02742-.54689.10993-2.18762.05577-1.09209.10549-.98123c.1356-1.30678.2509-2.60986.49575-3.96656a62.30647,62.30647,0,0,1,1.74986-7.94811,67.742,67.742,0,0,1,6.52193-14.95256,98.67589,98.67589,0,0,1,9.77463-13.5087c7.34115-8.566,15.86034-16.38049,24.42978-24.31892,4.28816-3.96972,8.6005-7.97116,12.84054-12.09381q3.17448-3.10092,6.2893-6.289l.50207-.52209c.143.19143.29673.39032.467.59661a26.83756,26.83756,0,0,0,2.76366,2.91189,26.13824,26.13824,0,0,0,4.07381,3.09668A30.92093,30.92093,0,0,0,179.2257,112.84a28.21246,28.21246,0,0,0,2.94992,1.00488,30.36457,30.36457,0,0,0,3.09722.78549,51.86819,51.86819,0,0,0,6.46213.9399c2.188.15139,4.39472.23095,6.57985.17182q2.00693-.04133,3.98094-.18264l-.05093-4.069c-1.27453-.08285-2.55174-.19607-3.82277-.3443-2.04376-.22207-4.05553-.57484-6.0036-.97571a45.98979,45.98979,0,0,1-5.535-1.58866,24.09852,24.09852,0,0,1-2.48951-1.00387,21.73856,21.73856,0,0,1-2.25125-1.12549,23.08237,23.08237,0,0,1-3.67414-2.49684,19.46406,19.46406,0,0,1-4.08805-4.72491c-.38757-.62812-.60313-1.17676-.79557-1.51649l-.057-.1104.72018-.42251.84368-.4637a36.20463,36.20463,0,0,1,10.95441-3.7117,36.83826,36.83826,0,0,1,3.84723-.41317q.96637-.06652,1.93746-.05409l.48513-.003c.05215-.00127.22577.00027.1782-.00336l.27361.00894,1.09472.03548a57.2543,57.2543,0,0,1,7.97519.94722A54.06159,54.06159,0,0,1,217.0212,98.6904a28.9548,28.9548,0,0,1,6.15358,4.29386,13.47406,13.47406,0,0,1,3.09291,4.08859l-.06088.21253-.126.44025-.12364.3404-.24135.67913c-.13372.43581-.38193.96247-.56913,1.44983-.18277.49723-.43434.99661-.65151,1.49619-.21112.49744-.48984,1.00791-.72865,1.5132-.23611.50886-.51564,1.03874-.77124,1.55768-.54078,1.04923-1.10372,2.14414-1.65552,3.28032-.11463.23887-.22939.48527-.34483.72663-1.5128-.1946-7.42945-.56046-13.774,4.34862-8.125,6.28743-13.32634,18.34388-15.51631,35.84858-.35249-.24183-.69451-.48924-1.049-.72979-1.73305-1.17172-3.5122-2.28868-5.30506-3.39374l-2.72818-1.60828-2.78571-1.52475c-1.88424-.97457-3.78877-1.909-5.72972-2.77206-1.9521-.83824-3.91966-1.638-5.92552-2.33283-.992-.37346-2.0107-.675-3.02586-.97941-1.00978-.31164-2.02292-.61717-3.07557-.87076-1.03008-.25029-2.10235-.57107-3.09-.75707l-3.014-.58915-1.25961,4.67351c1.934.6761,3.90515,1.3225,5.66951,2.04059.9051.33187,1.81073.7259,2.71529,1.12623.90671.38751,1.80683.78543,2.68989,1.2236,1.78815.81969,3.52967,1.73681,5.25184,2.68048,1.72311.944,3.41074,1.95392,5.07781,2.9981l2.47688,1.61238,2.44463,1.6754,2.41144,1.74145,2.39128,1.79064q2.3849,1.81663,4.75461,3.70027l4.77786,3.80476c3.22206,2.53837,6.49518,5.13217,10.01384,7.53346q1.30563.91306,2.67309,1.77673c.8934.59205,1.82631,1.14653,2.7599,1.70067,1.86435,1.11131,3.82317,2.11115,5.81976,3.0526,1.00091.466,2.03583.87781,3.05394,1.31612,1.042.39254,2.094.765,3.14855,1.1273,1.07389.31158,2.1389.65493,3.2226.93244,1.09176.24479,2.17424.54172,3.27729.7271a60.05482,60.05482,0,0,0,6.639.82306c1.108.04085,2.21833.11859,3.32352.12215l1.38271-.0342a8.40772,8.40772,0,0,0,3.63624-.92747l.78415-.40309a9.42372,9.42372,0,0,0,1.48255-1.028c.19325-.20118.3986-.3996.60784-.592a11.77712,11.77712,0,0,1,1.30839-1.03552,7.29389,7.29389,0,0,1,2.58426-1.171,4.40246,4.40246,0,0,1,2.26616.09393,5.86245,5.86245,0,0,1,.58432.22665,4.48636,4.48636,0,0,1,.606.30862c.00967.00524.01935.0131.029.01841.05.35444.09716.71218.11785,1.07261a13.524,13.524,0,0,1-.07969,2.65548,10.53666,10.53666,0,0,1-1.70389,4.62593,9.04185,9.04185,0,0,1-.74289.976,9.92333,9.92333,0,0,1-.87284.90261,12.94321,12.94321,0,0,1-.99635.83l-.02016.01431c-.23517.16778-.47358.33469-.719.49622-.12417.08171-.24619.16516-.37883.24022a13.91823,13.91823,0,0,1-1.21688.67865c-.40853.22665-.87472.39624-1.30677.6028l-1.12912.42829c-.2044-1.02255-.38381-2.16565-.53983-3.34214-6.61278.0725-15.364-.01418-18.914-.33623-12.95489-1.17938-22.13836-4.5283-33.76443-8.7674-7.39128-2.69634-15.7695-5.75069-26.51507-8.74053a13.13766,13.13766,0,0,0-16.30382,8.60936c-1.23529,4.03484-1.25786,9.21142-.06558,15.38784,3.62226,18.76431,3.69577,33.52.21529,40.55346a125.63029,125.63029,0,0,1-35.12309,12.61463c-.01774.00369-.03535.00222-.05322.00611-.44939.09817-.89824.17827-1.34736.26723q-.95266.18455-1.91394.35525-3.19464.54024-6.36456.76466a30.90546,30.90546,0,0,0,3.80234-5.13754,33.76664,33.76664,0,0,0,3.6615-9.49221,39.4964,39.4964,0,0,0-.8801-19.67418c-.222-.78979-.47908-1.56648-.76345-2.333-.26017-.77642-.5741-1.52959-.889-2.28243-.29766-.7613-.66333-1.48887-1.00938-2.22632l-.9364-1.95627c-.48205-1.10553-.99487-2.30312-1.40905-3.558-.43273-1.23669-.79678-2.50537-1.11474-3.79118a52.67652,52.67652,0,0,1-1.29966-7.91909c-.13264-1.34447-.18962-2.705-.23464-4.06661l-.02109-2.0498ZM17.02476,208.9156c4.66591-4.88846,15.90388-7.78692,30.83265-7.95248,16.38821-.18566,36.53294,3.26654,48.07516,8.13269.05281.22483.097.45066.15253.67509.3865,1.548.8332,3.08835,1.36725,4.60766.21529.64075.46176,1.27828.71561,1.918-9.94234,5.10691-30.65633,10.19352-49.15912,10.39785-16.78546.16664-33.82142-3.64349-34.13965-12.613A6.90962,6.90962,0,0,1,17.02476,208.9156Z"/></svg>