<svg id="Layer_2" data-name="Layer 2" xmlns="http://www.w3.org/2000/svg" viewBox="0 0 1627.73623 409.37079"><title>lumberyardfoundation-horizontal-black</title><path d="M796.119,353.53368H771.456v25.88378H760.80752V318.13914h38.93066v8.58594H771.456v18.22363H796.119Z"/><path d="M874.29873,350.37743a37.59665,37.59665,0,0,1-3.11426,15.80371,23.55622,23.55622,0,0,1-8.90136,10.4375,26.11171,26.11171,0,0,1-26.59864,0,23.90235,23.90235,0,0,1-9.00683-10.374,36.39831,36.39831,0,0,1-3.21973-15.53027v-3.45117a37.25873,37.25873,0,0,1,3.17774-15.82422,23.88369,23.88369,0,0,1,8.96386-10.501,26.16515,26.16515,0,0,1,26.55664-.042,23.57325,23.57325,0,0,1,8.94434,10.35352,37.20883,37.20883,0,0,1,3.19824,15.71875Zm-10.64844-3.19825q0-10.18506-3.85058-15.61425a13.58827,13.58827,0,0,0-21.7168-.02149q-3.89355,5.40968-3.97754,15.29883v3.53516q0,10.10156,3.93555,15.61425a12.67041,12.67041,0,0,0,10.92187,5.51367,12.52358,12.52358,0,0,0,10.87891-5.38769q3.80859-5.38623,3.80859-15.74023Z"/><path d="M946.96572,318.13914v40.9502q0,9.76464-6.249,15.4668-6.25048,5.70409-16.64551,5.70312-10.522,0-16.709-5.61816-6.186-5.61915-6.18653-15.59375V318.13914h10.60645v40.92774q0,6.13623,3.11426,9.37109,3.11426,3.23584,9.1748,3.23535,12.28859,0,12.28907-12.94238v-40.5918Z"/><path d="M1024.17861,379.41746h-10.64746L986.2167,335.94188v43.47558H975.56826V318.13914H986.2167l27.39844,43.64356V318.13914h10.56347Z"/><path d="M1054.00088,379.41746V318.13914h18.09766a28.39731,28.39731,0,0,1,14.415,3.61914,24.69825,24.69825,0,0,1,9.74316,10.26954,32.61023,32.61023,0,0,1,3.45117,15.23535v3.07226a32.46427,32.46427,0,0,1-3.47265,15.31934,24.38372,24.38372,0,0,1-9.89063,10.18555,29.69956,29.69956,0,0,1-14.709,3.57714Zm10.64844-52.69238v44.10645h6.94433q8.37452,0,12.85743-5.2295,4.48242-5.231,4.5664-15.01757v-3.40235q0-9.95508-4.335-15.20605-4.33593-5.25147-12.584-5.251Z"/><path d="M1160.96865,365.14989h-23.73632l-4.9668,14.26757h-11.06836l23.14746-61.27832h9.55371l23.18945,61.27832h-11.11035Zm-20.748-8.58594h17.75976l-8.87988-25.41992Z"/><path d="M1240.496,326.72508h-19.10742v52.69238H1210.8251V326.72508h-18.93945v-8.58594H1240.496Z"/><path d="M1277.01065,379.41746h-10.60547V318.13914h10.60547Z"/><path d="M1356.24307,350.37743a37.59681,37.59681,0,0,1-3.11426,15.80371,23.5563,23.5563,0,0,1-8.90137,10.4375,26.11169,26.11169,0,0,1-26.59863,0,23.90237,23.90237,0,0,1-9.00684-10.374,36.39816,36.39816,0,0,1-3.21972-15.53027v-3.45117A37.25873,37.25873,0,0,1,1308.58,331.439a23.88377,23.88377,0,0,1,8.96387-10.501,26.16515,26.16515,0,0,1,26.55664-.042,23.57331,23.57331,0,0,1,8.94434,10.35352,37.209,37.209,0,0,1,3.19824,15.71875Zm-10.64844-3.19825q0-10.18506-3.85059-15.61425a13.58826,13.58826,0,0,0-21.71679-.02149q-3.89357,5.40968-3.97754,15.29883v3.53516q0,10.10156,3.93555,15.61425a12.6704,12.6704,0,0,0,10.92187,5.51367,12.52358,12.52358,0,0,0,10.87891-5.38769q3.80859-5.38623,3.80859-15.74023Z"/><path d="M1432.69717,379.41746h-10.64746l-27.31445-43.47558v43.47558h-10.64844V318.13914h10.64844l27.39843,43.64356V318.13914h10.56348Z"/><path d="M970.367,139.33c-1.61071.49892-3.18364,1.06672-4.73254,1.70362a1.5062,1.5062,0,0,1-2.03087-1.70512c1.10943-5.72029,1.95405-11.77834,2.67206-18.22608,6.03123-54.16053.23347-68.44945-5.49089-74.84665-4.9939-5.57974-10.96869-5.57974-13.84032-5.57974a19.62993,19.62993,0,0,0-14.966,6.961c-10.30625,11.55152-13.08045,36.73166-8.48182,76.97838,2.13065,18.64045,6.51619,34.29758,12.99848,46.71367a3.81743,3.81743,0,0,1,.3397,2.75886,19.65305,19.65305,0,0,1-5.089,9.3434,14.07227,14.07227,0,0,1-9.75605,3.76667c-12.32726-.86779-16.03835-16.82524-16.19028-17.50431-4.50035-20.091-15.55895-32.08678-29.584-32.08678-9.65563,0-18.05334,7.23453-23.81568,19.11931a1.18238,1.18238,0,0,1-2.11949,0C844.51767,144.84148,836.12,137.607,826.4639,137.607c-6.31576,0-12.09163,3.09963-16.94562,8.5667v-.20547a3.7163,3.7163,0,0,0-3.71625-3.71624l-8.11445.00021a3.21786,3.21786,0,0,0-3.22612,3.13407c-.54591,26.94727-8.08141,41.79294-13.34913,41.79294-6.33551,0-15.81817-16.87245-16.37439-42.5498a2.41071,2.41071,0,0,0-2.398-2.37732l-10.332-.0001a2.36653,2.36653,0,0,0-2.35211,2.32517c-.6811,25.224-12.35944,42.602-22.87278,42.602-10.52149,0-22.20969-17.40453-22.87428-42.65977a2.30663,2.30663,0,0,0-2.2933-2.26767l-10.85346.00172a1.97033,1.97033,0,0,0-1.903,1.93709l-.00644.91962c-.09592,18.47811-4.057,31.69955-11.47,38.26253a17.511,17.511,0,0,1-12.71158,4.58415l-.35107-.04614c-.68325-.08423-10.38351-1.48978-19.6621-13.68292a2.75558,2.75558,0,0,1-.05687-3.203,99.7364,99.7364,0,0,0,16.69756-43.87091c4.35658-36.67082,2.06134-58.61883-7.22326-69.072-6.10784-6.87724-13.48088-6.87724-16.62911-6.87724a20.15909,20.15909,0,0,0-15.39587,7.1518c-9.95841,11.24541-12.58991,34.82837-8.0445,72.09456,2.03752,16.71312,5.92608,29.575,10.65626,39.47238a2.60686,2.60686,0,0,1-.35364,2.81948,142.74051,142.74051,0,0,1-32.929,27.98042,3.70221,3.70221,0,0,0-1.3356,4.89809l1.84524,3.49124,1.71178,3.25231a3.71543,3.71543,0,0,0,5.19626,1.45823,155.60428,155.60428,0,0,0,33.008-26.72421,2.76356,2.76356,0,0,1,4.08447.01159c11.96632,13.39022,24.47554,15.45606,26.68108,15.72226a32.11226,32.11226,0,0,0,24.36482-7.8562,39.6943,39.6943,0,0,0,9.12988-11.616,1.62964,1.62964,0,0,1,2.84115-.06213c6.87842,11.69379,16.74649,18.90547,27.87655,18.90547,11.17041,0,21.06552-7.27123,27.94651-19.04152a1.74108,1.74108,0,0,1,3.07806.12071c5.66042,11.76278,13.86907,18.92081,23.30474,18.92081a19.15483,19.15483,0,0,0,13.38132-5.49808,3.71612,3.71612,0,0,0,3.71624,3.71635h8.72217a2.76406,2.76406,0,0,0,2.58343-2.75328l.00622-.97992c.2088-26.92582,10.10583-44.05728,16.94219-44.05728,6.75032,0,16.48405,16.70132,16.93,43.04153l.01137.52338a1.39341,1.39341,0,0,0,1.33345,1.36027H858.0243c1.17873,0,1.2489-1.02176,1.25577-1.52744.36373-26.54578,10.15476-43.39774,16.93533-43.39774,6.29667,0,12.15429,7.986,14.92206,20.3445,4.55056,20.33194,18.89623,28.44167,29.66042,29.19831.21588.01888.7442.05665,1.52079.05665a29.09768,29.09768,0,0,0,19.4149-7.571c.5575-.51007,1.08968-1.04944,1.59675-1.6063a1.99185,1.99185,0,0,1,2.9506-.04968,32.967,32.967,0,0,0,13.35534,8.33194,44.322,44.322,0,0,0,14.28259,2.27839A52.92874,52.92874,0,0,0,989.542,201.1978c22.34532-6.92338,35.63758-25.93689,30.26214-43.284C1014.42672,140.56667,992.71444,132.40243,970.367,139.33ZM637.7423,152.97825a2.0623,2.0623,0,0,1-3.7862-.3119,131.39871,131.39871,0,0,1-5.03682-24.03478c-5.35656-43.92541,1.27852-56.81414,4.37975-60.31676a5.3428,5.3428,0,0,1,4.14714-2.08558c2.40833,0,3.84628.08594,5.39626,1.8299,2.74373,3.08965,8.58139,14.85908,3.5362,57.32143A80.68345,80.68345,0,0,1,637.7423,152.97825Zm313.60076-33.54008c-1.10406,9.918-2.48708,18.75751-4.76065,26.61349a1.9907,1.9907,0,0,1-3.84027-.02157,153.37275,153.37275,0,0,1-4.3171-23.12084c-5.48016-47.94777,1.506-61.61631,4.7643-65.26764a4.74167,4.74167,0,0,1,3.75508-1.941c2.12979,0,2.23881.12156,2.64438.57434C951.42181,58.325,956.96678,68.9353,951.34306,119.43817Zm33.75,67.40988c-7.11618,2.20715-14.63171,2.30361-20.614.26619-3.02656-1.03131-8.35394-3.56334-10.02215-8.94823-1.66864-5.38263,1.292-10.48447,3.206-13.04591,3.78233-5.06418,10.03373-9.23321,17.15206-11.44036a37.944,37.944,0,0,1,11.17534-1.72722c9.49082,0,17.43918,3.88405,19.46189,10.40915C1008.238,171.35175,998.91562,182.56368,985.09311,186.84805Z"/><path d="M1618.42092,172.04584l-7.73034-1.73119a3.58639,3.58639,0,0,0-4.17289,2.2756c-1.71542,4.82738-6.12221,13.7974-15.33964,14.50082l-.1824.00794a14.17388,14.17388,0,0,1-9.36637-3.63395c-3.339-3.05553-5.44539-8.14975-6.251-14.86648a3.88767,3.88767,0,0,1,.46737-2.312c7.64622-14.03934,10.73716-30.46395,12.80536-50.32154,6.07929-58.35693.10558-73.33338-5.77887-79.86267-4.92781-5.46868-10.756-5.46868-13.5577-5.46868a19.13973,19.13973,0,0,0-14.53194,6.76823c-10.65732,11.85752-13.57659,38.78377-8.92087,82.31927.54591,5.11107,1.25749,9.98663,2.10511,14.66252a2.72053,2.72053,0,0,1-3.21282,3.12988,47.0998,47.0998,0,0,0-9.59511-.69892v-.00837c-.209,0-.39527.02361-.60256.02565-.60643.0236-1.20857.032-1.82143.07811a42.38971,42.38971,0,0,0-19.02714,5.00753,46.89132,46.89132,0,0,0-17.79153,14.09932,33.55177,33.55177,0,0,0-5.98552,12.73766,25.75093,25.75093,0,0,1-3.23492,8.29191c-4.21238,6.62778-8.37067,10.04682-16.03706,10.04682a8.27365,8.27365,0,0,1-6.71491-2.76261c-5.54411-6.2044-5.38617-20.96079-4.86515-26.11918,1.45277-7.09945-.97852-11.71085-3.30552-14.34771-7.30459-8.27947-22.13653-7.376-34.753-6.19185-.15365-.19484-.315-.3898-.482-.58057-2.02271-2.3183-5.742-5.08092-11.98219-5.08092a11.19267,11.19267,0,0,0-8.55007,3.42087,10.24225,10.24225,0,0,0-2.6639,7.833c.36051,4.80839,4.20379,8.51841,9.88523,9.63985.321.10128.65149.18744.99419.25954a1.66538,1.66538,0,0,1,1.33389,1.61907c-.05794,12.84613-2.92334,22.33073-8.36188,27.565a16.94449,16.94449,0,0,1-12.08777,4.78533l-.279-.02307c-15.78557-1.0459-16.58512-16.06013-16.58512-19.05965V142.16127a3.609,3.609,0,0,0-3.609-3.60895h-7.80716a3.60851,3.60851,0,0,0-3.60852,3.60852,26.37127,26.37127,0,0,0-5.80934-3.07022,48.81355,48.81355,0,0,0-29.76644.12832c-10.53136,3.26282-19.04709,9.21358-24.54893,16.40755-.6532.77456-1.29268,1.53291-1.94589,2.30747-2.8978,2.99136-6.249,6.40032-9.84274,10.05573q-2.51712,2.5596-5.14605,5.23692a3.44214,3.44214,0,0,1-5.89925-2.40854V143.7679a2.76533,2.76533,0,0,0-2.76519-2.76519h-10.42235c-2.12164,0-1.95812,2.35929-1.95812,2.35929-.39184,25.7693-12.24185,43.60976-22.8951,43.60976-10.6026,0-22.78994-17.66826-22.89252-43.24281-.00043-.10815-.00879-.10011-.00879-.20847,0-2.633-2.84395-2.51777-2.84395-2.51777h-9.87536a3.59331,3.59331,0,0,0-3.60208,3.46421c-.71051,23.86954-8.73912,41.461-19.23057,41.461-14.486,0-18.36148-22.70883-19.36662-32.8476-.12381-7.86027-3.91237-12.16985-7.10052-14.40844-5.63981-3.9612-13.47465-4.29006-21.293-3.03675a3.45532,3.45532,0,0,1-3.24994-1.29547q-.16738-.21326-.34485-.41963a11.477,11.477,0,0,0-8.82452-4.02439c-7.43571,0-11.9601,2.6389-14.2386,8.30457a12.51174,12.51174,0,0,0,2.69545,12.79034,11.8045,11.8045,0,0,0,5.08553,3.19254,2.15994,2.15994,0,0,1,1.4062,2.90757c-13.10277,30.51492-43.42456,30.57114-44.93269,30.51835-16.92224,0-22.95754-8.943-23.326-13.46994.07425-.56222.38926-1.9284,1.609-1.648,8.10071,4.767,15.67869,4.99283,20.819,5.14272l1.11929.03144c13.4547,0,25.77122-8.6756,27.45317-19.34054a18.81981,18.81981,0,0,0-6.75868-17.18983l-2.09138-1.591-.27811-.21169c-12.91093-8.814-32.78913-5.47705-45.79212,8.183-7.18421,7.55008-11.14079,16.84831-11.14079,26.178,0,12.01674,11.91009,28.94048,38.23152,28.93844.27468.00622.55235.00837.83518.00837,16.83576,0,50.18861-10.11356,61.37962-48.958l.21072-.96844c.067-.44849.14871-1.06264.221-1.80051,6.35633-1.32057,10.87535-1.134,12.57017.05451.176.1236.71372.501.71372,2.51112l.03455.71683c1.34675,14.05834,7.38978,46.75723,34.35369,46.75723,10.34961,0,18.98615-6.12908,25.0045-16.80561a3.60831,3.60831,0,0,1,6.21041.00043c6.84365,11.06955,16.44756,17.84894,27.23836,17.84894,8.47368,0,16.21281-4.18534,22.46141-11.3409a.31386.31386,0,0,1,.55557.20043l-.00021,2.72259a3.62172,3.62172,0,0,1-.96608,2.45436,260.82281,260.82281,0,0,0-18.7325,22.04672c-26.77851,36.9266-24.10709,58.91453-17.15013,70.85584a24.2846,24.2846,0,0,0,21.04662,12.4765,13.3349,13.3349,0,0,0,1.43989-.07757c18.6132-2.09192,30.36171-14.22883,29.38619-76.28741V202.39048a3.6107,3.6107,0,0,1,.99054-2.48783c4.18576-4.41055,8.46852-8.82785,12.59034-13.04452a3.63178,3.63178,0,0,1,5.74582.66684c3.49758,6.19506,9.5685,11.05989,17.32523,13.70008a44.31845,44.31845,0,0,0,14.2828,2.2785,52.92867,52.92867,0,0,0,15.62291-2.4168,51.22891,51.22891,0,0,0,19.02627-10.61591,3.57,3.57,0,0,1,5.17008.32092c5.0085,6.153,12.50537,10.5996,22.717,11.30323.34377.02929.97466.07125,1.8343.07125a32.00566,32.00566,0,0,0,21.71636-8.67571c8.59213-8.04235,13.05321-20.68247,13.29183-37.62231a3.74328,3.74328,0,0,1,3.52333-3.6524c8.214-.49527,13.25-.21834,15.37978.871.03476.0176.13669.05612.16931.07414a1.25452,1.25452,0,0,1,.75191,1.31286c-.00987.26523-.03133.27585-.09527.87884l-.11159.80042c-.30085,2.58869-2.61669,25.64762,8.5226,38.15706a23.324,23.324,0,0,0,17.9469,7.80791c9.74682,0,16.6143-3.50734,21.82494-8.48344a3.52344,3.52344,0,0,1,4.8585.02318,33.23051,33.23051,0,0,0,12.5854,7.56725,44.31614,44.31614,0,0,0,14.28258,2.2785,52.93146,52.93146,0,0,0,15.62334-2.4168,50.40468,50.40468,0,0,0,21.476-12.88948,3.35617,3.35617,0,0,1,5.22909.47178,30.01284,30.01284,0,0,0,4.9467,5.88,29.10776,29.10776,0,0,0,19.37992,7.57734c.73689,0,1.23173-.03562,1.41928-.05247,10.208-.71865,23.43779-7.8784,28.81538-25.48957A3.566,3.566,0,0,0,1618.42092,172.04584Zm-565.4541-14.46735a7.984,7.984,0,0,1,2.37979-3.25262c7.887-5.65205,17.72759-6.66974,23.34337-1.80319l.39506.33755a3.82486,3.82486,0,0,1,1.35,3.121c-.35966,2.27636-5.50334,6.61738-12.50944,6.65933l-.783-.02521c-4.08576-.11942-8.54191-.2824-13.25127-2.90467A2.17291,2.17291,0,0,1,1052.96682,157.57849Zm200.48707,122.47738a10.25129,10.25129,0,0,1-18.413.7267q-.14162-.26717-.277-.54581c-3.25509-6.70964-5.38381-22.56012,16.93533-53.33684.78582-1.08367,2.78257-3.67912,3.72375-4.87384.9429-1.1974,2.35661-1.25706,3.14029-.22757a6.36439,6.36439,0,0,1,.67123,3.36582C1259.73017,256.71239,1256.97486,272.287,1253.45389,280.05587Zm100.06649-104.75923c-3.78233,5.06407-10.03416,9.23321-17.15334,11.44036-7.11619,2.20715-14.63065,2.30361-20.61381.2662-3.02677-1.03132-8.35393-3.56335-10.02257-8.94813-1.16672-3.7656-.19592-7.919,2.32743-11.79153.10622-.163.30042-.40568.41244-.56437a29.09054,29.09054,0,0,1,5.06858-5.389c.11931-.109.2163-.22479.34248-.326a37.15,37.15,0,0,1,12.2073-6.41556,38.08714,38.08714,0,0,1,11.18264-1.72507,29.36559,29.36559,0,0,1,9.43224,1.46091c3.02784,1.02917,8.35521,3.56335,10.02257,8.94609C1358.39455,167.63336,1355.43409,172.7352,1353.52038,175.29664ZM1535.3846,186.737c-7.11662,2.20715-14.63194,2.30361-20.61424.2662-3.02655-1.03132-8.35393-3.56335-10.02214-8.94813a10.51863,10.51863,0,0,1-.35064-1.73162l-.00772-.10987c-.02446-.242,0-1.33077,0-1.33077.74848-9.09405,7.95866-15.0933,15.31733-19.15321q.25944-.14067.52016-.28186a38.97094,38.97094,0,0,1,4.87889-1.87905,37.94729,37.94729,0,0,1,11.17534-1.72722c8.40715,0,15.592,3.05381,18.53186,8.28473a1.073,1.073,0,0,1,.07125.15418c.33132.88657.65149,1.79095.99783,2.65231a.96114.96114,0,0,1,.04807.15322C1557.92111,171.92481,1548.78479,182.58342,1535.3846,186.737Zm33.899-45.111a2.31832,2.31832,0,0,1-4.49005-.04013,177.88262,177.88262,0,0,1-3.99307-23.46182c-5.60076-52.3831,1.74075-66.87748,5.15614-70.67978a4.29575,4.29575,0,0,1,3.35788-1.7858c1.94417,0,2.03129.09635,2.397.503,1.91456,2.12336,7.71789,13.32477,1.99653,68.24828A190.88112,190.88112,0,0,1,1569.28358,141.626Z"/><path d="M334.0477,84.20418c-.19442-3.27923-4.49627-5.793-9.60842-5.6146-5.11235.17832-9.099,2.98128-8.90456,6.26051s4.49606,5.793,9.60841,5.6146S334.24212,87.48342,334.0477,84.20418Z"/><path d="M82.13836,297.21442c.74848,0,1.50727-.00344,2.266-.012,29.39777-.32532,64.59222-8.11563,84.49874-17.9146.17661.52649.37274,1.04773.5221,1.58173a48.05042,48.05042,0,0,1,1.1959,23.88821,38.91425,38.91425,0,0,1-4.14178,10.86183,33.59151,33.59151,0,0,1-7.2533,8.6948,33.96355,33.96355,0,0,1-9.82365,5.65012,42.53753,42.53753,0,0,1-11.66933,2.31165l1.09569,14.8549.25966-.01878c30.53423,18.0396,36.92253,37.87359,40.71173,39.75317,5.01494,2.48772,23.89444-4.31967,20.4857-19.89622-2.00383-9.15735-12.66437-15.826-22.71592-20.18527,1.84783-.17993,3.69887-.41341,5.55227-.6796a8.00339,8.00339,0,0,0,1.14826-.09764c.40536-.0691.8017-.15365,1.206-.22467.38411-.0676.76286-.14442,1.1459-.21363,1.83023-.31609,3.66131-.6502,5.49347-1.05009.03541-.00772.06566-.02478.10085-.03294,28.65015-5.89378,54.2364-16.69831,74.85771-30.81233,21.175,13.44493,44.19923,32.6755,51.88043,50.31189-.70342,2.95595-3.17677,6.07-6.03273,6.37875l-.01352-.00311,7.75824,14.43537c24.63433-12.45236,42.29411-5.53209,54.375.05794l4.17633,2.13708c.6369.35762.06523.00923.6369.35762l2.05318-.71179c3.51839-2.20791,12.55343-10.63319,10.29789-19.20546-2.78214-10.57385-9.72644-14.60372-16.39779-13.39569-6.67155,1.209-23.58113,11.82983-22.306,1.62561a.38714.38714,0,0,0-.08262-.10976,150.04074,150.04074,0,0,0,.08562-37.18208c-3.71367-29.17245-16.56559-51.78343-37.26716-65.88565a83.336,83.336,0,0,0,3.23235-14.49492c14.345,5.01794,28.25315,9.07216,46.15477,10.7011,6.45375.58347,21.10435.72327,32.11146.5928L399.24334,254.8a.25558.25558,0,0,0,.32167.17532l5.986-2.17293a11.193,11.193,0,0,1,1.61263-.54784c.52467-.13852.80171-.15118.81716.26909a29.3265,29.3265,0,0,1-.54935,3.46668c-.62767,3.109-.68454,3.57891-1.31242,6.68776l-.66585,3.90339c-.16159,1.45432.63077,2.22449,2.42388,1.50819,1.54847-.69774,3.5584-1.6448,3.649-1.688,10.25648-4.26742,21.41916-10.42182,31.64881-14.752,4.89455-2.07217,7.2636-6.97874,8.21552-11.75194.40836-2.04621.43261-7.42487-.18369-9.45928l16.17354,1.35545.073-.12145,4.8512-12.93969.00022-.00022,13.74525,1.3738,4.83575-12.92993,13.7429,1.37745,4.82051-12.9177,13.70964,1.39215,4.83253-12.93218v-.00022l13.72723,1.38356,4.82395-12.92735,13.73367,1.382.00085-.00021,4.81666-12.92005,8.07582.81007v-.00032l1.99267-11.85076.04592-.4236-6.966-33.05994L372.21157,193.97631a.68408.68408,0,0,0-.23419,1.11794l8.86916,8.94107a.68405.68405,0,0,0,.70089.16758l3.99315-1.32353a2.42742,2.42742,0,0,1,3.06067,1.362l2.23731,5.4337s.22038.70729-.98282.70729l-1.1459-.05483c-1.4944-.05021-3.32784-.19238-4.816-.26974a80.72473,80.72473,0,0,1-8.78461-1.24161c-1.44869-.2765-2.87056-.6679-4.31044-.98163-1.42788-.36437-2.83214-.82574-4.25143-1.22691l-4.18748-1.48249c-1.37358-.57885-2.76412-1.10234-4.12933-1.71714-2.72957-1.23828-5.42437-2.59255-8.08956-4.091-1.33345-.746-2.66948-1.489-3.98319-2.31369q-1.9857-1.18116-3.945-2.47657c-2.62034-1.689-5.21858-3.49457-7.83484-5.31568-2.61-1.82947-5.22029-3.72354-7.84257-5.634-.1721-.12639-.35063-.25225-.52316-.37864,2.95037-34.672,12.2-49.04174,19.48635-54.98016a18.98641,18.98641,0,0,1,8.34192-4.10873,22.95826,22.95826,0,0,0-.33,2.32818,43.50179,43.50179,0,0,0-.1927,6.56137l10.16935.76747c.25128-.8547.4663-1.70351.67381-2.547.21287-.84247.54505-1.64729.76007-2.4712.21244-.82541.58111-1.60641.85514-2.40425.26029-.80052.68732-1.55834.98753-2.343.29807-.78186.73518-1.543,1.0929-2.311.3442-.7707.80449-1.54011,1.1959-2.3079.85471-1.53077,1.748-3.10971,2.716-4.69917.9944-1.60534,1.99718-3.26207,3.01089-5.00528,1.02617-1.74407,2.04246-3.56013,2.97828-5.48756.4605-.97692.95535-1.91489,1.37358-2.93847.42639-1.03142.85964-1.95984,1.253-3.11915l.59312-1.67208.29034-.83518.20622-.70159.41223-1.40331.2045-.70213.05086-.17553.1515-.58883c.03648-.163.07532-.33079.12875-.6545.02425-.15343.05837-.37124.08562-.71608l.01888-.34881-.00171-.5427a7.24519,7.24519,0,0,0-.14614-1.2224c-.01609-.09721-.07789-.35032-.16738-.64806l.00086.00075-.00622-.01792c-.06009-.19828-.13-.412-.21523-.624A34.286,34.286,0,0,0,372.57128,73.07a51.965,51.965,0,0,0-4.94326-4.06656c1.22444.04367,2.41734.08208,3.53148.106,3.39157.1162,6.22178.18519,8.20179.19677,1.983.04239,3.09372.02264,3.09372.02264l1.22294-12.349s-1.15534-.24506-3.14115-.56126c-1.98837-.35289-4.82974-.776-8.24706-1.21671-.45643-.06277-.94827-.12382-1.42466-.18573l1.136-.25075c-6.05484-27.42441-33.4947-45.39663-61.1646-40.06625a49.88144,49.88144,0,0,0-32.55566,21.65627,49.32874,49.32874,0,0,0-8.09213,29.69122,52.86055,52.86055,0,0,0-4.72181,4.15744l-4.91622,5.10066Q255.7569,80.22845,250.8,85.03839c-6.60976,6.416-13.40363,12.71094-20.25029,19.03808-13.671,12.65783-27.67184,25.41791-40.27033,40.07613a172.51167,172.51167,0,0,0-17.15979,23.70785A123.31548,123.31548,0,0,0,161.20651,195.144a114.5834,114.5834,0,0,0-3.23428,14.609c-.43519,2.4271-.68454,4.99111-.9369,7.54461l-.19141,1.9122-.09077,1.74911-.17854,3.49307-.04463.87327-.02511,1.11682-.02554,1.85566.03541,3.72139c.03755,1.20063.08326,2.40232.14592,3.60488-20.64921-6.85117-49.64334-11.2923-74.44505-11.0143-28.88019.31931-49.78454,6.39646-60.45388,17.57223A26.71824,26.71824,0,0,0,13.973,261.86739C14.75927,284.07645,40.182,297.21442,82.13836,297.21442Zm181.02388.12414c2.07357-17.48285-.65707-38.85083-3.95573-55.94291-1.79052-9.27709-1.13989-14.57657-.27982-17.38854.92359-3.01111,4.42567-4.6952,7.799-3.75616,14.83557,4.12632,26.85618,8.37443,37.488,12.23659C302.44224,256.62382,287.267,279.4673,263.16224,297.33856Zm75.02745,59.41827-5.00828,1.048c-10.03674-22.83276-37.18605-43.52725-52.99071-54.11537,13.05514-11.06762,23.34423-23.62856,30.2205-37.088C345.80028,293.30376,339.94459,345.44265,338.18969,356.75683Zm97.83992-172.05268,121.85625-48.6718,1.24933,6.68218a2.11128,2.11128,0,0,1-2.4712,2.634,1.46028,1.46028,0,0,0-1.75061.82348l-4.46816,11.97587-13.72981-1.37852-4.81923,12.91855v.00011l-13.72766-1.38334-.00042.00032-4.82567,12.92531-13.718-1.38753L494.80112,192.77v.00011l-13.73581-1.372-4.83554,12.9296v.00022l-13.73238-1.37627L458.22,214.3547a2.14546,2.14546,0,0,1-2.22035,1.38163l-1.118-.11062c-.83646-.08272-5.961-.5648-6.21791-1.36521l-12.63412-29.55625Zm-27.78578,15.30344a10.51439,10.51439,0,0,1,8.94748-5.66535c4.29735-.29935,7.10374,1.79063,9.02817,5.6264.30322.23487,11.43049,28.35567,11.22341,27.92917a8.646,8.646,0,0,1-1.197,10.23105c-1.90448,2.22421-6.47844,3.743-9.30928,4.89863-1.55476.6347-1.59568-.30354-2.14717-1.89-.17-.48894-.64806-1.83055-1.25621-3.56207.18841-.33862.38047-.67541.56094-1.0179a32.10667,32.10667,0,0,0,3.22226-10.54123,36.47627,36.47627,0,0,0,.22188-7.12155c-.071-1.17712-.20171-2.34577-.38947-3.52215-.09035-.58872-.19979-1.17626-.32918-1.7813l-.20944-.9208c-.08991-.35289-.13927-.56887-.30858-1.13131l-.01223-.04034a7.04567,7.04567,0,0,0-2.34459-3.47118,30.38079,30.38079,0,0,0-4.1098-2.8506,21.28813,21.28813,0,0,0-2.35189-1.19172,24.23,24.23,0,0,0-2.545-.96436,23.33911,23.33911,0,0,0-2.72163-.64848,21.26111,21.26111,0,0,0-2.76755-.31266l-.4326-.03269C408.62989,201.85335,407.93707,200.57721,408.24383,200.00759ZM290.727,44.539a34.77414,34.77414,0,0,1,9.03911-9.30724c.33647-.06148.7002-.128,1.11757-.20429a16.0839,16.0839,0,0,1,1.98967-.22553,22.24414,22.24414,0,0,1,2.36841-.15751c.83153.01824,1.72808-.01234,2.64652.03026.90149.10407,1.85834.16019,2.818.29356.93475.20493,1.93387.31458,2.88128.5884a27.11951,27.11951,0,0,1,2.83557.87359,23.25295,23.25295,0,0,1,2.68494,1.112c.88067.3692,1.64846.86983,2.43364,1.27358.72682.47767,1.46521.88872,2.07014,1.35459a26.74907,26.74907,0,0,1,2.8669,2.31337c.28777.27575.51373.49237.6678.64012a2.74153,2.74153,0,0,1,.241.25665l5.98874-4.16967c-.01309-.01481-.0382-.08906-.25214-.41952-.20772-.33358-.47381-.72639-.80642-1.2091a34.531,34.531,0,0,0-3.02956-3.71775c-.65343-.74891-1.44655-1.45749-2.25962-2.25758-.86715-.72241-1.74332-1.5621-2.75961-2.27925-.23-.17618-.47639-.34656-.71372-.52059a37.87359,37.87359,0,0,1,32.58741,24.72886c-2.94716-.22414-5.97285-.421-9.00778-.629-4.59134-.27779-9.1889-.56963-13.51457-.67939-4.32611-.13176-8.37046-.212-11.85645-.22918-1.76563.02028-3.38384.03884-4.81837.05537-1.45319.00708-2.61476.06834-3.62526.09044-1.99159.08026-3.12956.12618-3.12956.12618l.00086.059c-.60557.01781-1.21114.00988-1.81649.04936a73.75448,73.75448,0,0,0-7.75952.83089,72.77591,72.77591,0,0,0-15.00982,4.18962l-.03863.01663A34.58514,34.58514,0,0,1,290.727,44.539ZM171.65933,226.72755l.00751-.63164.04377-.87326.17554-3.49318.08905-1.74386.16845-1.56682c.21652-2.08665.40064-4.16741.79162-6.33379a99.48958,99.48958,0,0,1,2.79416-12.69152,108.17079,108.17079,0,0,1,10.41419-23.87619,157.568,157.568,0,0,1,15.6081-21.57066c11.72233-13.67819,25.32574-26.1563,39.00941-38.83237,6.8473-6.33883,13.73323-12.72831,20.50372-19.31135q5.069-4.95153,10.04274-10.04232l.8017-.83368c.22833.30569.47382.62328.7457.95267a42.85444,42.85444,0,0,0,4.413,4.6497,41.73744,41.73744,0,0,0,6.505,4.94477,49.37339,49.37339,0,0,0,8.38612,4.17342,45.04744,45.04744,0,0,0,4.71043,1.60459,48.48859,48.48859,0,0,0,4.94562,1.25427,82.82346,82.82346,0,0,0,10.31871,1.50083c3.49371.24174,7.01747.36877,10.50668.27435q3.20467-.066,6.35676-.29162l-.08133-6.49742c-2.03516-.1323-4.07461-.31309-6.10419-.54978-3.26346-.35461-6.47585-.9179-9.58652-1.558a73.43429,73.43429,0,0,1-8.83826-2.53676,38.48043,38.48043,0,0,1-3.97526-1.603,34.7155,34.7155,0,0,1-3.59478-1.79718,36.85772,36.85772,0,0,1-5.86685-3.987,31.08083,31.08083,0,0,1-6.52779-7.54472c-.61887-1.003-.96307-1.879-1.27036-2.42152l-.091-.17629,1.15-.67466,1.34719-.74044a57.81132,57.81132,0,0,1,17.492-5.92683,58.824,58.824,0,0,1,6.14324-.65975q1.54311-.10621,3.09372-.08637l.77467-.00483c.08326-.002.36051.00043.28454-.00537l.43691.01427,1.748.05666A91.42382,91.42382,0,0,1,328.266,68.80348a86.32518,86.32518,0,0,1,24.24486,8.25,46.23464,46.23464,0,0,1,9.826,6.85642,21.51565,21.51565,0,0,1,4.93875,6.52864l-.09721.33938-.20128.703-.19742.54355-.3854,1.08442c-.21352.69591-.60986,1.53689-.90879,2.31509-.29184.794-.69355,1.59139-1.04032,2.38912-.33712.7943-.78218,1.60942-1.1635,2.41627-.377.81254-.82338,1.65866-1.23152,2.4873-.86351,1.6754-1.76242,3.42376-2.64352,5.238-.183.38144-.3663.77488-.55063,1.16029-2.41563-.31073-11.86332-.89495-21.99426,6.94387-12.974,10.03973-21.27945,29.29144-24.77639,57.24288-.56286-.38615-1.109-.78121-1.67508-1.16532-2.76733-1.871-5.60827-3.65455-8.47109-5.41911l-4.35637-2.56809-4.4482-2.43472c-3.00875-1.5562-6.0499-3.04834-9.1492-4.42643-3.11711-1.33849-6.2589-2.61562-9.46185-3.725-1.58409-.59634-3.21067-1.07788-4.83168-1.56392-1.61241-.49763-3.2302-.9855-4.91107-1.39043-1.64482-.39967-3.357-.91189-4.934-1.20888l-4.8128-.94076-2.01133,7.46264c3.08814,1.0796,6.23572,2.11177,9.05306,3.25842,1.44525.52993,2.89136,1.1591,4.33576,1.79836,1.44783.61876,2.88514,1.25416,4.2952,1.95383,2.85532,1.30888,5.63617,2.77334,8.38612,4.28018,2.75146,1.50738,5.44626,3.12,8.10823,4.78736l3.95508,2.57464,3.90358,2.67527,3.85058,2.78075,3.81839,2.85928q3.80819,2.9008,7.59214,5.90859l7.62927,6.07543c5.145,4.05326,10.37149,8.195,15.99006,12.02941q2.08484,1.458,4.26838,2.83707c1.42659.94537,2.91626,1.83076,4.407,2.71562,2.977,1.77454,6.10482,3.37108,9.293,4.87438,1.59825.74408,3.2508,1.40169,4.87652,2.10157,1.66392.62681,3.34372,1.22154,5.0276,1.80008,1.71477.49752,3.41539,1.04579,5.14583,1.48892,1.74332.39087,3.47183.865,5.23317,1.161a95.896,95.896,0,0,0,10.6011,1.31425c1.76928.06523,3.54222.18937,5.307.19506l2.2079-.05462a13.42546,13.42546,0,0,0,5.80634-1.481l1.25212-.64366a15.04733,15.04733,0,0,0,2.36734-1.64149c.30858-.32124.63647-.63808.97059-.94526a18.80356,18.80356,0,0,1,2.08923-1.65352,11.64712,11.64712,0,0,1,4.12654-1.86992,7.02979,7.02979,0,0,1,3.61861.15,9.36241,9.36241,0,0,1,.933.3619,7.16648,7.16648,0,0,1,.96758.4928c.01545.00837.0309.02093.04635.0294.07982.566.15515,1.13721.18819,1.71274a21.59611,21.59611,0,0,1-.12725,4.24027,16.825,16.825,0,0,1-2.72077,7.38667,14.43911,14.43911,0,0,1-1.18624,1.55845,15.84365,15.84365,0,0,1-1.39375,1.44129,20.6645,20.6645,0,0,1-1.591,1.3254l-.03219.02286c-.37553.26791-.75621.53443-1.148.79236-.19828.13047-.39313.26373-.60493.38358a22.21945,22.21945,0,0,1-1.9431,1.08367c-.65234.36191-1.39675.63272-2.08665.96254l-1.803.68389c-.32639-1.6328-.61286-3.45809-.862-5.33671-10.55926.11578-24.53326-.02263-30.20183-.5369-20.68634-1.88322-35.35046-7.23077-53.91494-13.99975-11.80237-4.30551-25.18068-9.18267-42.33918-13.95684-11.27877-3.13643-22.71377,2.89952-26.03388,13.7474-1.9725,6.44281-2.00855,14.70876-.10472,24.57125,5.784,29.96278,5.9014,53.5246.34377,64.75563a200.60552,200.60552,0,0,1-56.08443,20.143c-.02833.0059-.05644.00354-.085.00977-.71758.15675-1.43431.28465-2.15146.42671q-1.52122.29467-3.05617.56726-5.1012.86265-10.16291,1.221a49.34992,49.34992,0,0,0,6.07156-8.20361,53.918,53.918,0,0,0,5.84668-15.15714,63.06782,63.06782,0,0,0-1.40534-31.41566c-.3545-1.26113-.765-2.50135-1.21907-3.72536-.41545-1.23979-.91673-2.44245-1.41951-3.64457-.47531-1.21565-1.05921-2.37743-1.61177-3.555l-1.49526-3.12377c-.76972-1.76531-1.58859-3.67762-2.25-5.68144-.691-1.97476-1.27229-4.00058-1.78-6.05376a84.11349,84.11349,0,0,1-2.07528-12.64517c-.2118-2.14685-.30279-4.31934-.37468-6.49355l-.03369-3.27312ZM33.15723,253.06068c7.45052-7.80587,25.39527-12.43412,49.23348-12.69849,26.16864-.29646,58.33568,5.216,76.76626,12.98625.08433.359.15493.71963.24356,1.078.61716,2.47184,1.33045,4.93146,2.18322,7.35749.34377,1.02316.73733,2.04116,1.14269,3.06271-15.87591,8.15469-48.95194,16.277-78.49713,16.60325-26.803.26609-54.00593-5.81792-54.51408-20.14042A11.03325,11.03325,0,0,1,33.15723,253.06068Z"/></svg>