<svg id="Layer_2" data-name="Layer 2" xmlns="http://www.w3.org/2000/svg" viewBox="0 0 360 360"><defs><style>.cls-1{fill:#66459a;}</style></defs><title>lumberyardfoundation-icon-color</title><path class="cls-1" d="M205.25882,105.4332c-.123-2.075-2.84514-3.6657-6.08-3.55279s-5.75762,1.88648-5.6346,3.9615,2.845,3.6657,6.08,3.55279S205.38184,107.50822,205.25882,105.4332Z"/><path class="cls-1" d="M45.85652,240.22105c.47363,0,.95377-.00217,1.43391-.0076,18.60222-.20585,40.87244-5.13538,53.46881-11.33594.11175.33315.23586.663.33037,1.00088a30.40515,30.40515,0,0,1,.75674,15.1159,24.62405,24.62405,0,0,1-2.62082,6.87311,21.256,21.256,0,0,1-4.58972,5.50187,21.49154,21.49154,0,0,1-6.21617,3.57526,26.9172,26.9172,0,0,1-7.38408,1.46276l.69333,9.39982.1643-.01188c19.32134,11.415,23.36371,23.96552,25.76143,25.15487,3.17333,1.57417,15.11983-2.73338,12.96286-12.58986-1.268-5.79455-8.01371-10.01433-14.37409-12.77276,1.16926-.11386,2.34055-.26159,3.51334-.43a5.06372,5.06372,0,0,0,.7266-.06178c.2565-.04372.50729-.09722.76312-.14217.24305-.04277.48272-.09138.7251-.13518,1.15812-.2,2.31679-.41143,3.47613-.66447.02241-.00488.04155-.01568.06382-.02084,18.12914-3.72945,34.31951-10.5663,47.3682-19.49732,13.399,8.50764,27.96823,20.67629,32.82871,31.83618-.44511,1.87046-2.01019,3.84092-3.81737,4.03632l-.00856-.002,4.90923,9.13436c15.588-7.87955,26.76272-3.50057,34.40723.03667l2.64268,1.3523c.403.22628.04128.00583.403.22628l1.29921-.4504c2.22636-1.39711,7.94351-6.72843,6.51626-12.15276-1.76047-6.69089-6.15466-9.24089-10.37613-8.47648-4.2216.765-14.92159,7.48564-14.11474,1.02865a.245.245,0,0,0-.05228-.06945,94.94222,94.94222,0,0,0,.05418-23.52794c-2.34992-18.45964-10.48232-32.76734-23.58178-41.69089a52.73274,52.73274,0,0,0,2.04535-9.17205c9.0772,3.17524,17.87793,5.74065,29.20565,6.77141,4.08379.3692,13.35434.45767,20.31938.37511l.95336,3.49121a.1617.1617,0,0,0,.20354.11093l3.78777-1.375a7.08217,7.08217,0,0,1,1.02043-.34666c.332-.08765.5073-.09566.51708.17027a18.55632,18.55632,0,0,1-.34762,2.19364c-.39717,1.96727-.43316,2.26464-.83047,4.23185l-.42133,2.47c-.10225.92027.39914,1.40761,1.53377.95435.97984-.44151,2.25167-1.04079,2.309-1.06815,6.49-2.70032,13.55353-6.59468,20.02661-9.33472,3.09716-1.31122,4.59624-4.416,5.19859-7.43635a18.5468,18.5468,0,0,0-.11623-5.9856l10.23423.85769.04617-.07685,3.06973-8.18793.00013-.00014,8.69768.86931,3.05995-8.18176,8.69617.87162,3.05031-8.174,8.67514.88091,3.05791-8.18318v-.00013l8.68627.87548,3.05248-8.18012,8.69034.87447.00054-.00014,3.04787-8.17551,5.11019.5126v-.0002l1.26091-7.49889.02906-.268-4.4079-20.91955L229.408,174.89441a.43288.43288,0,0,0-.1482.70741l5.6122,5.6577a.43288.43288,0,0,0,.44351.106l2.52677-.8375a1.536,1.536,0,0,1,1.93672.86183l1.41571,3.43832s.13946.44756-.6219.44756l-.7251-.0347c-.94562-.03177-2.10578-.12173-3.04746-.17068a51.08294,51.08294,0,0,1-5.55869-.78566c-.9167-.175-1.81642-.42264-2.72755-.62116-.90352-.23056-1.79211-.5225-2.6902-.77636l-2.64974-.93808c-.86917-.36628-1.74907-.69753-2.61294-1.08656-1.72721-.78356-3.43241-1.64051-5.11888-2.58871-.84378-.47206-1.68919-.94222-2.52047-1.46405q-1.25651-.7474-2.4963-1.56711c-1.65809-1.06878-3.3022-2.21128-4.95771-3.36364-1.65157-1.15765-3.30328-2.35617-4.96259-3.56507-.1089-.08-.22187-.15962-.33105-.2396,1.86693-21.93964,7.71988-31.03246,12.33051-34.79015a12.01419,12.01419,0,0,1,5.27857-2.5999,14.52592,14.52592,0,0,0-.20884,1.47321,27.52694,27.52694,0,0,0-.12194,4.15188l6.43493.48564c.159-.54083.29506-1.07794.42637-1.61165.1347-.5331.34489-1.04236.481-1.56372.13443-.5223.36771-1.01649.54111-1.52135.16471-.50655.43493-.98608.62489-1.48258.18861-.49474.46521-.97638.69156-1.46236.2178-.48767.50907-.97454.75674-1.46038.54084-.96864,1.10612-1.96775,1.71865-2.97352.62924-1.01582,1.26377-2.06416,1.90522-3.16723.64933-1.1036,1.29242-2.25276,1.88459-3.4724.29139-.61817.60452-1.21169.86916-1.85939.26981-.65266.544-1.24014.79286-1.97373l.37532-1.058.18372-.52848.13049-.444.26084-.888.12941-.44429.03218-.11107.09586-.3726c.02309-.10313.04767-.20932.08148-.41415.01534-.09709.03693-.23491.05418-.45312l.01194-.22072-.00108-.34341a4.58492,4.58492,0,0,0-.09247-.7735c-.01019-.06152-.04929-.22168-.10592-.41008l.00055.00048-.00394-.01134c-.038-.12547-.08229-.26071-.13619-.39487a21.69524,21.69524,0,0,0-5.96022-8.99185,32.88179,32.88179,0,0,0-3.128-2.57323c.7748.02763,1.52964.05194,2.23464.06708,2.14611.07353,3.937.11718,5.1899.12452,1.2548.02681,1.95763.01432,1.95763.01432l.77385-7.81417s-.73107-.15507-1.98764-.35515c-1.2582-.22331-3.05615-.491-5.21855-.76991-.28882-.03972-.6-.07835-.90149-.11753l.71885-.15866a33.39172,33.39172,0,0,0-38.70351-25.353,31.56383,31.56383,0,0,0-20.60045,13.70358,31.214,31.214,0,0,0-5.12051,18.78791,33.44792,33.44792,0,0,0-2.98785,2.63073l-3.11087,3.22758q-3.03341,3.11559-6.17,6.15921c-4.1825,4.05988-8.4815,8.04318-12.8139,12.04685-8.6507,8.00957-17.51009,16.08385-25.48212,25.35922a109.16138,109.16138,0,0,0-10.85831,15.00177A78.031,78.031,0,0,0,95.889,175.63329a72.5072,72.5072,0,0,0-2.04658,9.24421c-.27537,1.53582-.43316,3.15826-.59284,4.77406l-.12113,1.21-.05743,1.1068-.113,2.21033-.02824.55258-.01589.7067-.01616,1.17422.02241,2.35481c.02376.75973.05268,1.52013.09233,2.28108-13.06633-4.33526-31.41313-7.1455-47.10707-6.96959-18.2747.202-31.50249,4.04753-38.25379,11.11929a16.90668,16.90668,0,0,0-4.92851,12.45652C3.22063,231.90766,19.30754,240.22105,45.85652,240.22105Zm114.54765.07856c1.31211-11.06274-.41578-24.58389-2.50309-35.39936-1.133-5.87032-.7213-9.22371-.17707-11.00306a3.96353,3.96353,0,0,1,4.935-2.3768c9.38761,2.611,16.994,5.29913,23.72151,7.743C185.25963,214.53628,175.65708,228.9911,160.40417,240.29961Zm47.4756,37.59848-3.16912.66311c-6.351-14.448-23.53046-27.543-33.53127-34.24292a77.289,77.289,0,0,0,19.12282-23.4684C212.69558,237.74648,208.99023,270.73874,207.87977,277.89809Zm61.9108-108.87088,77.10776-30.79837.79055,4.22833a1.336,1.336,0,0,1-1.56372,1.66671.924.924,0,0,0-1.10775.52108l-2.82735,7.578-8.68789-.8723-3.0495,8.17456v.00007l-8.68653-.87535-.00028.0002L318.7123,166.829l-8.68043-.878-3.05208,8.18v.00007l-8.69169-.86815-3.05982,8.18155v.00013l-8.68952-.87086-2.70664,7.21556a1.35759,1.35759,0,0,1-1.405.87426l-.70745-.07c-.5293-.05234-3.772-.35739-3.93455-.86387l-7.99457-18.7025Zm-17.58219,9.68365a6.65329,6.65329,0,0,1,5.66176-3.5849c2.71926-.18942,4.49508,1.13307,5.71281,3.56026.19187.14862,7.23294,17.9428,7.10191,17.67292a5.471,5.471,0,0,1-.75742,6.474c-1.2051,1.40743-4.0994,2.36848-5.89069,3.09974-.98381.40162-1.00971-.19207-1.35868-1.19594-.10754-.30939-.41008-1.15833-.7949-2.254.11922-.21427.24075-.42739.35495-.6441a20.31638,20.31638,0,0,0,2.039-6.67025,23.08071,23.08071,0,0,0,.1404-4.50634c-.04494-.74486-.12764-1.48436-.24645-2.22874-.05716-.37253-.12642-.74431-.20829-1.12716l-.13253-.58266c-.0569-.2233-.08813-.36-.19526-.71587l-.00774-.02553a4.45835,4.45835,0,0,0-1.48361-2.19648A19.22344,19.22344,0,0,0,259.543,181.982a13.47065,13.47065,0,0,0-1.48822-.75409,15.3284,15.3284,0,0,0-1.61043-.61022,14.766,14.766,0,0,0-1.72218-.41035,13.4538,13.4538,0,0,0-1.75124-.19784l-.27374-.02069C252.45267,179.87882,252.01427,179.07131,252.20838,178.71086ZM177.8465,80.334a22.00411,22.00411,0,0,1,5.71974-5.8894l.70717-.12927a10.17627,10.17627,0,0,1,1.259-.14271,14.07654,14.07654,0,0,1,1.49868-.09967c.52617.01154,1.09349-.00781,1.67466.01915.57044.06585,1.17591.10136,1.78315.18575.59148.12968,1.2237.19907,1.8232.37233a17.16108,17.16108,0,0,1,1.79429.55279,14.71423,14.71423,0,0,1,1.699.70364c.55727.23362,1.04311.55041,1.54.8059.45991.30226.92715.56236,1.30994.85715a16.92531,16.92531,0,0,1,1.8141,1.46385c.18209.17448.32508.31156.42257.405a1.73566,1.73566,0,0,1,.15249.1624l3.78953-2.63847c-.00828-.00937-.02417-.05635-.15955-.26546-.13144-.21108-.29981-.45964-.51028-.76509a21.85064,21.85064,0,0,0-1.917-2.35251c-.41347-.47389-.91534-.92226-1.42983-1.42854-.54871-.45712-1.10313-.98846-1.74622-1.44226-.14556-.11148-.30144-.21929-.45162-.32941A23.96552,23.96552,0,0,1,219.24,86.02706c-1.8649-.14183-3.77949-.26642-5.69992-.398-2.90529-.17578-5.81451-.36045-8.5517-.4299-2.73746-.08338-5.29663-.13416-7.50248-.145-1.11725.01283-2.14122.02457-3.04895.035-.91955.00448-1.65456.04325-2.294.05723-1.26023.05079-1.98031.07985-1.98031.07985l.00054.03734c-.38319.01127-.76638.00624-1.14943.03123a46.67254,46.67254,0,0,0-4.91.52576,46.05165,46.05165,0,0,0-9.49786,2.6511l-.02445.01052A21.88493,21.88493,0,0,1,177.8465,80.334ZM102.50328,195.61863l.00476-.39969.0277-.55258.11107-2.2104.05635-1.10347.1066-.99145c.137-1.32039.25351-2.637.50091-4.00788a62.95467,62.95467,0,0,1,1.76808-8.03089,68.44787,68.44787,0,0,1,6.58986-15.10829,99.70359,99.70359,0,0,1,9.87643-13.6494c7.41762-8.65524,16.02553-16.55109,24.68423-24.57221,4.33282-4.01107,8.69007-8.05418,12.97428-12.21977q3.20754-3.13321,6.35481-6.35454l.5073-.52753c.14447.19342.29981.39439.47185.60282a27.11741,27.11741,0,0,0,2.79245,2.94222,26.41,26.41,0,0,0,4.11624,3.12893,31.242,31.242,0,0,0,5.30654,2.64085,28.50454,28.50454,0,0,0,2.98065,1.01534,30.68158,30.68158,0,0,0,3.12947.79368,52.4103,52.4103,0,0,0,6.52943.94969c2.21074.153,4.4405.23335,6.64839.1736q2.02783-.04176,4.0224-.18453l-.05146-4.11142c-1.2878-.08371-2.57832-.19811-3.86259-.34788-2.065-.22439-4.09776-.58083-6.06613-.98588a46.46868,46.46868,0,0,1-5.59264-1.6052,24.348,24.348,0,0,1-2.51544-1.01433,21.96436,21.96436,0,0,1-2.2747-1.13721,23.3225,23.3225,0,0,1-3.7124-2.52285,19.66652,19.66652,0,0,1-4.13063-4.77412c-.39161-.63466-.60941-1.189-.80386-1.53228l-.05757-.11155.72768-.42691.85247-.46853a36.58126,36.58126,0,0,1,11.0685-3.75036,37.22245,37.22245,0,0,1,3.8873-.41748q.97644-.06722,1.95764-.05465l.49019-.00306c.05268-.00129.22812.00028.18-.00339l.27646.009,1.10612.03585a57.84957,57.84957,0,0,1,8.05825.95709,54.62436,54.62436,0,0,1,15.34157,5.22038,29.25611,29.25611,0,0,1,6.21767,4.33859,13.61443,13.61443,0,0,1,3.12513,4.13117l-.06151.21474-.12737.44484-.12492.344-.24388.68619c-.1351.44036-.3859.97251-.57505,1.46494-.18467.50241-.43886,1.007-.6583,1.51178-.21332.50261-.49494,1.0184-.73623,1.529-.23858.51416-.521,1.04957-.77928,1.57391-.54641,1.06015-1.11521,2.16647-1.67275,3.31448-.11583.24136-.23179.49032-.34843.7342-1.52855-.19662-7.50683-.5663-13.91745,4.39391-8.20965,6.35291-13.46514,18.53494-15.67791,36.222-.35617-.24434-.70175-.49433-1.06-.73739-1.75111-1.18392-3.54879-2.31251-5.36031-3.42908l-2.75661-1.625L179.37,154.47985c-1.90386-.98473-3.82823-1.92892-5.78939-2.80094-1.97244-.847-3.96049-1.6551-5.98724-2.35712-1.00238-.37735-2.03164-.68205-3.05737-.98961-1.0203-.31489-2.044-.6236-3.10761-.87983-1.04081-.2529-2.12425-.577-3.12214-.76495l-3.04542-.59529-1.27273,4.72218c1.9541.68314,3.94582,1.33628,5.72856,2.06185.91453.33533,1.82959.73345,2.74357,1.138.91615.39154,1.82565.7936,2.7179,1.23634,1.80678.82823,3.56644,1.7549,5.30654,2.7084,1.74106.95383,3.44627,1.97426,5.1307,3.02933l2.50268,1.62916,2.47009,1.69285,2.43656,1.75959,2.41618,1.80929q2.40975,1.83556,4.80413,3.73882l4.82762,3.84439c3.25562,2.5648,6.56284,5.18562,10.11814,7.61192q1.31923.92258,2.70093,1.79523c.90271.59821,1.84534,1.15847,2.78865,1.71838,1.88377,1.12289,3.863,2.13314,5.88037,3.0844,1.01134.47084,2.057.88695,3.08575,1.32982,1.05289.39663,2.11583.773,3.18134,1.13905,1.08507.31482,2.16118.66175,3.25617.94215,1.10313.24734,2.19689.54736,3.31142.73467a60.68016,60.68016,0,0,0,6.70813.83163c1.11956.04128,2.24143.11983,3.35814.12343l1.39711-.03456a8.49539,8.49539,0,0,0,3.67411-.93713l.79231-.40729a9.52159,9.52159,0,0,0,1.498-1.0387c.19526-.20327.40274-.40376.61416-.59814a11.89833,11.89833,0,0,1,1.322-1.0463,7.37007,7.37007,0,0,1,2.61118-1.18325,4.44838,4.44838,0,0,1,2.28977.09492,5.92437,5.92437,0,0,1,.5904.229,4.534,4.534,0,0,1,.61226.31184c.00977.00529.01955.01323.02933.0186.05051.35814.09817.7196.11908,1.08378a13.66517,13.66517,0,0,1-.08052,2.68314,10.64637,10.64637,0,0,1-1.72164,4.67411,9.13538,9.13538,0,0,1-.75062.98615,10.02382,10.02382,0,0,1-.88194.912,13.0747,13.0747,0,0,1-1.00672.83869l-.02037.01446c-.23762.16953-.47851.33818-.72646.50139-.12546.08256-.24876.16689-.38278.24272a14.06065,14.06065,0,0,1-1.22955.68572c-.41279.229-.88383.40037-1.32038.60907l-1.14088.43276c-.20653-1.0332-.38781-2.1882-.54546-3.377-6.68165.07326-15.52407-.01432-19.111-.33974-13.08982-1.19166-22.36893-4.57546-34.1161-8.85871-7.46826-2.72442-15.93374-5.81058-26.79123-8.83156a13.2745,13.2745,0,0,0-16.47363,8.699c-1.24815,4.07686-1.271,9.30736-.06626,15.54811,3.66,18.95974,3.73426,33.8691.21753,40.97583a126.93862,126.93862,0,0,1-35.48891,12.746c-.01792.00373-.03571.00224-.05377.00617-.45407.0992-.9076.18013-1.36139.27q-.96259.18646-1.93388.35895-3.22791.54586-6.43085.77262a31.22669,31.22669,0,0,0,3.84195-5.191,34.11831,34.11831,0,0,0,3.69964-9.59108,39.90785,39.90785,0,0,0-.88927-19.87908c-.22432-.798-.48408-1.5828-.7714-2.35733-.26289-.7845-.58008-1.54552-.89823-2.3062-.30077-.76923-.67024-1.50438-1.01989-2.2495l-.94616-1.97665c-.48707-1.11705-1.00523-2.32711-1.42373-3.59508-.43723-1.24958-.80507-2.53147-1.12635-3.83068a53.22532,53.22532,0,0,1-1.31319-8.00156c-.134-1.35848-.19159-2.73318-.23708-4.109l-.02132-2.07115Zm-87.64085,16.663c4.71451-4.93937,16.06952-7.868,31.15378-8.03531,16.5589-.18759,36.91344,3.30057,48.57588,8.2174.05336.22717.098.45536.15412.68212.39052,1.56413.84187,3.12051,1.38149,4.65565.21753.64743.46656,1.2916.72306,1.938-10.0459,5.1601-30.97563,10.29969-49.67113,10.50615-16.96029.16837-34.17368-3.68145-34.49522-12.74439A6.98155,6.98155,0,0,1,14.86243,212.28161Z"/></svg>